<svg width="307" height="353" viewBox="0 0 307 353" fill="none" xmlns="http://www.w3.org/2000/svg">
<path fill-rule="evenodd" clip-rule="evenodd" d="M50.7619 0.70703C52.0059 0.94603 53.8059 0.937026 54.7619 0.687026C55.7179 0.437026 54.7 0.241028 52.5 0.252028C50.3 0.263028 49.5179 0.46803 50.7619 0.70703ZM244.25 8.71603C245.762 8.94503 248.238 8.94503 249.75 8.71603C251.262 8.48703 250.025 8.30003 247 8.30003C243.975 8.30003 242.738 8.48703 244.25 8.71603ZM95.9999 18.364C95.9999 18.639 97.3499 19.825 98.9999 21C100.65 22.175 102 22.911 102 22.636C102 22.361 100.65 21.175 98.9999 20C97.3499 18.825 95.9999 18.089 95.9999 18.364ZM47.7389 25.217C41.5919 31.81 36.8579 48.77 36.7749 64.5C36.7459 70 37.2289 75.752 37.8489 77.282C38.9359 79.969 39.073 80.014 41.822 78.592C45.807 76.531 55 69.148 55 68.008C55 66.49 51.865 68.046 46.619 72.166C43.935 74.275 41.356 76 40.888 76C38.332 76 38.6519 55.255 41.3619 45.339C43.0769 39.062 47.5069 29.202 49.7019 26.777C51.8919 24.357 57.0129 24.526 62.7169 27.207C67.3209 29.371 81.7539 42.568 83.8079 46.492C84.3809 47.587 85.1629 48.171 85.5449 47.788C87.1469 46.186 84.603 41.736 78.699 35.814C70.636 27.726 62.4679 22.847 55.9409 22.22C51.2959 21.774 50.7699 21.966 47.7389 25.217ZM212 26.5C209.525 27.825 207.855 28.93 208.29 28.955C209.352 29.016 217 25.086 217 24.48C217 23.817 217.041 23.8 212 26.5ZM92.9999 25.364C92.9999 25.639 94.3499 26.825 95.9999 28C97.6499 29.175 98.9999 29.911 98.9999 29.636C98.9999 29.361 97.6499 28.175 95.9999 27C94.3499 25.825 92.9999 25.089 92.9999 25.364ZM235.488 29.881C226.171 33.293 212 44.548 212 48.535C212 50.908 213.002 50.315 219.445 44.129C228.654 35.285 240.121 30.1 245.965 32.138C249.73 33.45 251.624 38.258 253.084 50.206C254.213 59.446 253.766 70.341 251.903 79C250.187 86.981 249.626 87.137 243.966 81.217C241.188 78.312 238.483 76.202 237.955 76.528C236.665 77.325 237.914 79.335 243.73 85.815C249.834 92.616 251.252 92.188 254.254 82.641C256.165 76.566 256.5 73.261 256.5 60.5C256.5 37.926 253.252 29.356 244.348 28.44C242.138 28.213 238.366 28.826 235.488 29.881ZM195.25 36.115C191.841 38.298 190.738 39.764 193.75 38.108C196.044 36.847 199.639 34.068 199 34.049C198.725 34.04 197.038 34.97 195.25 36.115ZM119.25 35.689C120.213 35.941 121.787 35.941 122.75 35.689C123.713 35.438 122.925 35.232 121 35.232C119.075 35.232 118.287 35.438 119.25 35.689ZM186.5 42.61L182.5 46.189L186.75 43.011C190.408 40.275 191.727 38.957 190.75 39.015C190.613 39.023 188.7 40.641 186.5 42.61ZM129.75 42.723C131.537 42.945 134.463 42.945 136.25 42.723C138.037 42.502 136.575 42.32 133 42.32C129.425 42.32 127.963 42.502 129.75 42.723ZM147.25 43.689C148.213 43.941 149.787 43.941 150.75 43.689C151.713 43.438 150.925 43.232 149 43.232C147.075 43.232 146.287 43.438 147.25 43.689ZM263.37 59C263.37 64.775 263.535 67.137 263.737 64.25C263.939 61.363 263.939 56.637 263.737 53.75C263.535 50.862 263.37 53.225 263.37 59ZM30.232 57C30.232 58.925 30.438 59.713 30.689 58.75C30.941 57.787 30.941 56.213 30.689 55.25C30.438 54.287 30.232 55.075 30.232 57ZM29.272 71C29.272 73.475 29.467 74.488 29.706 73.25C29.944 72.012 29.944 69.988 29.706 68.75C29.467 67.512 29.272 68.525 29.272 71ZM270.232 72C270.232 73.925 270.438 74.713 270.689 73.75C270.941 72.787 270.941 71.213 270.689 70.25C270.438 69.287 270.232 70.075 270.232 72ZM27 96C25.878 98.2 25.184 100 25.459 100C25.734 100 26.878 98.2 28 96C29.122 93.8 29.816 92 29.541 92C29.266 92 28.122 93.8 27 96ZM21.162 107.543C19.487 111.22 19.8069 112.005 21.6179 108.662C22.4639 107.1 22.9689 105.636 22.7409 105.407C22.5119 105.179 21.802 106.14 21.162 107.543ZM89.4999 114.682C91.1499 115.562 92.807 116.782 93.182 117.392C93.556 118.001 94.601 119.4 95.503 120.5C96.782 122.061 96.7419 121.766 95.3209 119.158C93.6939 116.172 89.4469 112.933 87.2999 113.04C86.8599 113.062 87.8499 113.801 89.4999 114.682ZM186.25 119.689C187.212 119.941 188.788 119.941 189.75 119.689C190.712 119.438 189.925 119.232 188 119.232C186.075 119.232 185.288 119.438 186.25 119.689ZM43.3919 131.75C37.9039 143.97 37.3179 147 40.4429 147C41.8669 147 49.262 128.234 48.393 126.826C47.228 124.942 45.8329 126.315 43.3919 131.75ZM53.2189 128.25C51.9219 129.83 47 144.846 47 147.222C47 148.2 47.589 149 48.309 149C49.428 149 52.948 140.245 56.048 129.75C56.926 126.778 55.1849 125.855 53.2189 128.25ZM60.9329 131.125C59.9499 132.962 55 146.77 55 147.675C55 147.854 55.8419 148 56.8699 148C58.2919 148 59.3709 146.225 61.3699 140.593C64.1159 132.859 64.67 129 63.035 129C62.505 129 61.5589 129.956 60.9329 131.125ZM4.19595 135.62C5.31495 135.954 6.02795 137.466 6.29395 140.07L6.69595 144.015L6.59795 139.766C6.51795 136.289 6.13695 135.481 4.49995 135.316C3.04495 135.17 2.96195 135.253 4.19595 135.62ZM15.25 135.689C16.213 135.941 17.787 135.941 18.75 135.689C19.713 135.438 18.925 135.232 17 135.232C15.075 135.232 14.287 135.438 15.25 135.689ZM68.9999 135.907C68.9999 136.82 75.8849 143.497 76.2439 142.932C76.3949 142.694 74.8269 140.859 72.7589 138.853C70.6919 136.847 68.9999 135.522 68.9999 135.907ZM217.29 138.25C215.521 140.567 209 156.828 209 158.923C209 160.066 209.571 161 210.268 161C211.662 161 220 142.124 220 138.969C220 136.735 218.709 136.393 217.29 138.25ZM113.374 139.467C113.065 140.274 113.043 141.511 113.327 142.217C113.61 142.923 113.878 142.52 113.921 141.323C113.964 140.126 114.787 138.941 115.75 138.689C117.39 138.261 117.388 138.225 115.719 138.116C114.739 138.052 113.684 138.66 113.374 139.467ZM208.208 139.25C206.727 141.035 202 153.879 202 156.119C202 157.154 202.615 158 203.367 158C204.74 158 211 142.991 211 139.7C211 137.699 209.672 137.485 208.208 139.25ZM224.636 140.78C223.399 142.781 218 157.219 218 158.526C218 159.337 218.788 159.993 219.75 159.984C221.038 159.973 222.359 157.617 224.75 151.065C226.538 146.167 228 141.674 228 141.08C228 139.843 225.361 139.607 224.636 140.78ZM26.5 147C26.5 148.545 26.838 149.6 27.25 149.345C27.662 149.091 28 148.035 28 147C28 145.965 27.662 144.909 27.25 144.655C26.838 144.4 26.5 145.455 26.5 147ZM263 147.387C263 147.599 264.35 147.971 266 148.213C267.65 148.455 269 148.282 269 147.827C269 147.372 267.65 147 266 147C264.35 147 263 147.174 263 147.387ZM18 160.373C18 161.453 21.972 169 22.541 169C22.816 169 22.076 167.088 20.897 164.75C18.579 160.153 18 159.278 18 160.373ZM24 183.5C25.866 185.425 27.6169 187 27.8919 187C28.1669 187 26.866 185.425 25 183.5C23.134 181.575 21.383 180 21.108 180C20.833 180 22.134 181.575 24 183.5ZM39.3589 186.772C40.1499 188.052 46 192.381 46 191.687C46 191.44 44.3479 189.977 42.3289 188.437C40.3099 186.897 38.9729 186.148 39.3589 186.772ZM49 193.983C49 195.814 52.804 198.824 57.08 200.374C59.598 201.288 63.173 203.152 65.024 204.518C69.999 208.188 73.3119 207.455 69.4049 203.548C66.4939 200.637 49 192.436 49 193.983ZM39.104 202.535C37.397 204.479 36.005 206.391 36.011 206.785C36.017 207.178 37.1689 206.045 38.5709 204.266C39.9729 202.488 41.8799 200.589 42.8099 200.047C43.7389 199.504 43.984 199.047 43.354 199.03C42.723 199.014 40.811 200.591 39.104 202.535ZM178.5 204.563C173.51 206.338 168.327 212.076 166.881 217.427C165.515 222.479 166.283 230.686 168.572 235.51C170.812 240.231 177.137 247 179.308 247C181.767 247 181.398 245.756 177.966 242.468C174.699 239.337 170.532 231.407 169.531 226.413C168.821 222.867 171.308 214.587 173.835 212.087C177.047 208.91 178.976 207.795 182.722 206.95C188.712 205.598 194.371 207.572 200.458 213.136C203.385 215.811 206.055 218 206.39 218C208.232 218 206.55 213.38 203.75 210.75C196.447 203.891 186.941 201.562 178.5 204.563ZM267.452 225.093C266.572 226.794 266.03 228.363 266.247 228.58C266.464 228.797 267.39 227.406 268.305 225.487C270.361 221.175 269.649 220.845 267.452 225.093ZM276.518 225.566C275.022 227.527 273.956 229.289 274.149 229.482C274.342 229.675 275.767 228.07 277.315 225.916C280.834 221.02 280.198 220.74 276.518 225.566ZM259.602 260.571C257.501 263.085 254.653 265.657 253.273 266.285C251.131 267.261 250.52 267.126 249.085 265.353C247.475 263.365 247.354 263.746 246.216 274.389C244.82 287.453 242.107 297.863 237.96 306.079C236.316 309.335 235.191 312 235.46 312C235.729 312 236.619 310.703 237.439 309.117C238.259 307.532 240.055 305.952 241.429 305.607C243.396 305.114 244.262 303.862 245.494 299.74C247.618 292.631 250 278.702 250 273.395C250 269.672 250.393 268.845 252.75 267.611C255.291 266.28 259.748 261.96 262.925 257.75C265.616 254.182 263.296 256.153 259.602 260.571ZM51.343 275.5C51.346 279.9 51.522 281.576 51.733 279.224C51.945 276.872 51.942 273.272 51.727 271.224C51.512 269.176 51.339 271.1 51.343 275.5ZM281 284C279.825 285.65 279.089 287 279.364 287C279.639 287 280.825 285.65 282 284C283.175 282.35 283.911 281 283.636 281C283.361 281 282.175 282.35 281 284ZM274.234 291.029C272.438 292.663 271.313 293.982 271.734 293.959C272.881 293.898 279.579 287.995 278.462 288.029C277.933 288.045 276.03 289.395 274.234 291.029ZM281.462 295.25L276.5 300.5L281.75 295.538C284.637 292.808 287 290.446 287 290.288C287 289.541 286.074 290.372 281.462 295.25ZM64.2409 310.75C65.7119 312.296 67.037 315.032 67.268 317L67.6799 320.5L67.8399 316.99C67.9549 314.468 67.285 312.708 65.46 310.74C64.062 309.233 62.628 308 62.272 308C61.917 308 62.8029 309.238 64.2409 310.75ZM66 332.5C67.866 334.425 69.6169 336 69.8919 336C70.1669 336 68.866 334.425 67 332.5C65.134 330.575 63.383 329 63.108 329C62.833 329 64.134 330.575 66 332.5Z" fill="#E4A467"/>
<path fill-rule="evenodd" clip-rule="evenodd" d="M52.232 26.228C49.535 27.529 45.594 33.534 46.489 34.982C46.835 35.542 46.724 36 46.242 36C45.761 36 44.294 39.487 42.984 43.75C40.32 52.416 40.469 51.631 39.447 62.286C38.756 69.497 38.86 70.221 40.867 72.091C42.668 73.769 43.278 73.889 44.482 72.805C49.425 68.352 51.319 67.427 57.247 66.567C60.353 66.116 62.339 65.236 62.989 64.02C63.536 62.999 65.396 61.852 67.123 61.473C68.85 61.094 72.866 59.257 76.049 57.392C79.232 55.526 82.293 54 82.851 54C86.232 54 84.185 45.776 80.447 44.341C79.658 44.038 79.235 43.429 79.508 42.987C80.415 41.52 68.252 30.824 64.25 29.57C63.012 29.182 62 28.446 62 27.933C62 27.42 61.127 27 60.059 27C58.991 27 57.84 26.55 57.5 26C56.729 24.752 55.153 24.821 52.232 26.228ZM236.738 33.662C235.769 33.931 235.269 34.626 235.627 35.205C236.002 35.812 235.689 36.051 234.889 35.77C232.408 34.894 225.392 39.461 218.098 46.697C209.832 54.898 209.756 56.069 217.111 62C223.617 67.247 228.888 71 229.751 71C230.173 71 231.081 71.9 231.768 73C232.579 74.299 234.1 75 236.109 75C238.436 75 240.344 76.127 243.822 79.557C247.898 83.575 248.584 83.921 249.631 82.49C251.189 80.359 253.005 69.747 252.98 62.918C252.936 50.715 249.763 35.351 247.128 34.582C243.984 33.664 238.482 33.177 236.738 33.662ZM271.286 59.5C271.294 62.25 271.488 63.256 271.718 61.736C271.947 60.216 271.941 57.966 271.704 56.736C271.467 55.506 271.279 56.75 271.286 59.5ZM135 92.878C140.789 93.335 145.032 94.295 148.302 95.889C150.943 97.176 153.303 98.031 153.545 97.788C153.788 97.546 151.852 96.262 149.243 94.935C145.38 92.971 142.83 92.494 135.5 92.366L126.5 92.208L135 92.878ZM111.5 97.072C109.3 98.168 106.6 100.046 105.5 101.245L103.5 103.426L105.596 101.697C106.749 100.746 109.899 98.874 112.596 97.537C115.293 96.2 117.05 95.1 116.5 95.093C115.95 95.085 113.7 95.976 111.5 97.072ZM162 103.209C162 103.397 164.262 105.746 167.027 108.428C169.792 111.11 171.777 112.582 171.438 111.7C170.903 110.305 162 102.295 162 103.209ZM97.303 134.007C96.679 135.661 96.542 136.783 96.999 136.501C97.456 136.218 98.002 136.505 98.212 137.137C98.423 137.769 98.642 136.647 98.699 134.643C98.756 132.639 98.72 131 98.62 131C98.52 131 97.928 132.353 97.303 134.007ZM172.16 136.668C172.072 138.411 171.741 140.661 171.424 141.668C170.882 143.397 170.913 143.4 171.986 141.728C172.612 140.754 172.943 138.504 172.722 136.728L172.32 133.5L172.16 136.668ZM94.458 139.067C93.964 139.868 94.101 140.055 94.845 139.595C95.48 139.203 96 139.321 96 139.858C96 140.394 95.438 141.06 94.75 141.338C93.849 141.701 93.832 141.864 94.691 141.921C96.399 142.034 97.405 140.005 96.226 138.826C95.559 138.159 94.97 138.24 94.458 139.067ZM134 139.618C134 140.168 134.661 141.491 135.468 142.559C136.276 143.626 136.936 144.05 136.936 143.5C136.936 142.95 136.276 141.626 135.468 140.559C134.661 139.491 134 139.068 134 139.618ZM151.25 143.577C151.25 145.88 151.402 146.033 152.229 144.556C152.867 143.416 152.867 142.467 152.229 141.829C151.59 141.19 151.25 141.799 151.25 143.577ZM83 144L77.5 144.674L82.691 144.837C85.546 144.927 88.16 144.55 88.5 144C88.84 143.45 88.979 143.073 88.809 143.163C88.639 143.253 86.025 143.629 83 144ZM144.095 143.941C143.101 144.556 143.073 144.927 143.98 145.488C144.637 145.894 145.624 145.776 146.174 145.226C147.477 143.923 145.801 142.887 144.095 143.941ZM71.732 146.536C69.679 147.931 68 149.59 68 150.223C68 150.856 69.262 150.165 70.805 148.687C72.347 147.209 74.121 146 74.746 146C75.371 146 76.16 145.55 76.5 145C77.568 143.272 75.605 143.905 71.732 146.536ZM193.104 152.331C194.537 152.974 196.562 154.119 197.604 154.875C198.647 155.631 198.237 155.068 196.694 153.625C195.151 152.181 193.126 151.037 192.194 151.081C191.048 151.136 191.343 151.541 193.104 152.331ZM59.39 162.608C58.561 164.593 58.064 166.397 58.286 166.619C58.507 166.84 59.397 165.217 60.264 163.011C62.223 158.023 61.454 157.669 59.39 162.608ZM207.576 168.5C207.908 169.6 208.818 173.2 209.596 176.5C210.921 182.114 210.981 182.199 210.533 177.81C210.27 175.231 209.361 171.631 208.513 169.81C207.665 167.99 207.243 167.4 207.576 168.5ZM56.31 178.5C56.315 181.8 56.502 183.029 56.725 181.232C56.947 179.435 56.943 176.735 56.715 175.232C56.486 173.729 56.304 175.2 56.31 178.5ZM210.035 189C209.967 190.925 209.281 194.3 208.509 196.5C207.302 199.938 207.302 200.235 208.511 198.615C210.083 196.509 211.494 188.839 210.683 186.813C210.394 186.091 210.103 187.075 210.035 189ZM204.18 203.508C201.653 206.414 201.29 207.834 203.555 205.955C205.067 204.7 207.427 201 206.716 201C206.52 201 205.38 202.128 204.18 203.508ZM285.75 211.706C286.988 211.944 289.012 211.944 290.25 211.706C291.488 211.467 290.475 211.272 288 211.272C285.525 211.272 284.512 211.467 285.75 211.706ZM61.697 238.75C60.922 240.131 59.83 245.504 60.45 244.884C61.193 244.141 63.012 238 62.489 238C62.285 238 61.929 238.337 61.697 238.75ZM58.69 246.75C58.002 247.958 56.769 255.552 57.356 254.971C57.989 254.345 59.939 246 59.453 246C59.269 246 58.926 246.337 58.69 246.75ZM180 248.771C181.375 249.722 184.413 252.245 186.75 254.377C191.789 258.975 192.494 258.478 187.614 253.768C183.179 249.487 181.903 248.536 179.5 247.72C178.007 247.214 178.134 247.48 180 248.771ZM54.232 274C54.232 275.925 54.438 276.712 54.689 275.75C54.941 274.788 54.941 273.212 54.689 272.25C54.438 271.288 54.232 272.075 54.232 274ZM55.565 289.502C56.533 293.49 57.85 297 58.377 297C58.92 297 56.19 287.856 55.415 287.082C55.098 286.764 55.165 287.853 55.565 289.502ZM195.252 291.5C195.263 293.7 195.468 294.482 195.707 293.238C195.946 291.994 195.937 290.194 195.687 289.238C195.437 288.282 195.241 289.3 195.252 291.5ZM192.111 303.111C191.495 304.878 191.166 306.499 191.38 306.713C191.594 306.927 192.273 305.656 192.889 303.889C193.505 302.122 193.834 300.501 193.62 300.287C193.406 300.073 192.727 301.344 192.111 303.111ZM62.638 305.696C62.347 305.987 63.432 307.637 65.05 309.362C66.667 311.088 67.993 312.822 67.995 313.215C67.998 313.608 69.012 314.462 70.25 315.112C72.203 316.139 72.137 315.928 69.75 313.511C68.238 311.98 67 310.339 67 309.864C67 308.627 63.27 305.064 62.638 305.696ZM73 316.577C73 317.252 78.195 319.139 78.69 318.644C78.917 318.417 77.729 317.753 76.051 317.168C74.373 316.583 73 316.317 73 316.577ZM177.583 322.6C175.429 324.47 173.865 326.198 174.107 326.44C174.349 326.682 176.336 325.374 178.523 323.533C180.711 321.692 182.275 319.964 182 319.693C181.725 319.422 179.738 320.73 177.583 322.6ZM84.096 320.994C84.974 321.507 87.674 322.166 90.096 322.458L94.5 322.99L89.5 321.514C83.795 319.831 81.773 319.636 84.096 320.994ZM110.542 326.068C110.905 326.656 111.855 326.886 112.653 326.58C113.454 326.272 113.833 326.461 113.5 327C113.158 327.553 113.567 327.72 114.442 327.384C116.656 326.534 115.33 325 112.382 325C110.864 325 110.141 325.419 110.542 326.068ZM165.5 329.09C162.75 330.092 161.22 330.932 162.101 330.956C164.126 331.012 170.195 329.004 171.45 327.864C172.779 326.655 171.399 326.94 165.5 329.09Z" fill="#FFCFB9"/>
<path fill-rule="evenodd" clip-rule="evenodd" d="M49 8.66199C44.011 10.634 40.576 16.677 36.302 31C31.586 46.807 30.737 52.773 30.328 73C29.874 95.436 29.902 95 28.933 95C27.218 95 15 123.507 15 127.507C15 127.67 17.813 128.124 21.25 128.516C28.702 129.366 31 130.418 31 132.976C31 135.855 29.223 136.432 21.267 136.135L14 135.865L14.015 139.182C14.038 144.18 14.873 144.789 21.5 144.637C27.247 144.506 27.5 144.604 27.5 146.964C27.5 149.082 26.726 149.665 22 151.105C17.634 152.435 16.566 153.164 16.821 154.64C17.479 158.445 23.431 170.189 25.403 171.569C26.526 172.356 27.017 173 26.494 173C25.97 173 26.534 174.013 27.747 175.25C28.96 176.488 31.063 178.692 32.42 180.148C37.118 185.191 47.056 192.151 53.764 195.096C57.469 196.723 61.239 198.465 62.143 198.969C63.105 199.504 62.413 197.842 60.475 194.963C54.636 186.285 54.71 172.065 60.656 160.289C63.936 153.794 70.646 146.487 75.111 144.549C76.975 143.74 77.801 143.061 76.946 143.039C76.092 143.018 73.88 141.439 72.031 139.532C65.635 132.933 66.943 121.197 74.737 115.251C78.844 112.119 85.697 111.704 90.632 114.289C93.755 115.925 93.766 115.922 94.312 113.19C94.613 111.684 96.437 108.887 98.365 106.976C108.844 96.584 119.011 92.512 134.5 92.505C143.613 92.5 145.008 92.761 150.224 95.446C153.372 97.066 157.076 99.316 158.455 100.446C159.834 101.576 162.974 103.998 165.433 105.83C171.464 110.322 176.021 118.261 176.283 124.734C176.32 125.644 176.681 125.68 177.656 124.871C178.383 124.267 178.688 123.305 178.334 122.732C177.981 122.16 178.16 121.981 178.732 122.334C179.305 122.688 180.32 122.32 180.987 121.515C182.733 119.411 188.32 118.62 192.257 119.92C194.12 120.535 197.187 122.629 199.072 124.574C202.338 127.944 202.5 128.455 202.5 135.389C202.5 142.166 202.278 142.92 199.267 146.348C197.489 148.373 195.802 150.023 195.517 150.015C195.233 150.007 194.514 150 193.919 150C193.325 150 195.339 152.285 198.395 155.078C202.057 158.425 205.068 162.424 207.226 166.807C210.324 173.101 210.5 174.049 210.5 184.479C210.5 195.038 210.371 195.709 207.421 200.5C205.727 203.25 203.332 206.008 202.097 206.629L199.852 207.758L202.924 209.946C205.823 212.01 207.938 216.395 206.655 217.679C206.333 218.001 203.609 216.016 200.603 213.268C191.133 204.613 181.806 204.202 173.835 212.087C171.322 214.573 168.823 222.866 169.517 226.413C170.49 231.384 174.108 238.21 177.933 242.291C180.884 245.44 181.233 246.242 179.993 247.026C178.931 247.697 178.873 247.974 179.792 247.985C183.226 248.025 190.537 256.152 192.993 262.659C196.385 271.643 196.968 290.109 194.156 299.507C191.687 307.76 188.148 313.577 181.285 320.66C173.721 328.467 168.598 330.522 157 330.402C145.839 330.287 141.005 329.787 141.002 328.75C141.001 328.337 140.063 328 138.917 328C136.547 328 136.529 327.927 140.376 334.041C145.556 342.275 154.443 345.763 167.442 344.664C175.589 343.976 189.883 339.593 191.75 337.212C192.438 336.335 193 335.984 193 336.431C193 336.879 193.598 336.749 194.328 336.143C195.058 335.537 198.626 334.62 202.256 334.106C226.195 330.716 242.001 309.802 246.084 276.112C247.097 267.756 247.022 264.579 245.58 254.615C243.864 242.758 239.285 226.427 236.06 220.662C235.087 218.923 233.006 215.25 231.435 212.5C227.769 206.081 227.502 204.113 229.982 201.802C231.092 200.768 232 200.207 232 200.556C232 201.545 240.894 196.136 247.23 191.293C255.994 184.595 267.062 167.892 263.993 165.996C263.358 165.603 260.287 164.719 257.169 164.03C250.73 162.607 249 161.531 249 158.945C249 156.251 251.84 155.825 259.777 157.326L266.908 158.674L267.879 154.12C268.413 151.616 268.604 149.168 268.302 148.68C267.993 148.179 262.536 148.107 255.759 148.514C243.484 149.252 242.061 148.919 242.015 145.297C241.993 143.578 248.134 142.082 258.252 141.341C263.312 140.971 267.443 140.171 268.046 139.445C268.776 138.565 268.637 136.292 267.583 131.845C265.805 124.352 261.544 110.885 260.091 108.171C258.639 105.456 257.146 95.118 258.158 94.781C258.623 94.626 259.776 91.124 260.72 86.999C262.038 81.236 262.431 74.87 262.416 59.5C262.4 41.947 262.126 38.521 260.178 31.5C258.957 27.1 257.515 23.349 256.973 23.165C256.431 22.98 256.242 22.418 256.553 21.915C256.864 21.412 256.615 21 256 21C255.385 21 255.123 20.61 255.417 20.134C256.091 19.044 253.193 16.447 250.333 15.577C247.901 14.837 238.494 16.813 228.888 20.08C216.392 24.331 197.725 34.558 186.66 43.214C181.155 47.521 179.988 47.652 166.5 45.479C161.55 44.682 147.825 43.731 136 43.367L114.5 42.704L107 36.49C96.549 27.832 87.028 21.592 76.5 16.503C63.07 10.011 52.913 7.11499 49 8.66199ZM47.739 25.217C41.592 31.81 36.858 48.77 36.775 64.5C36.746 70 37.235 75.766 37.861 77.314L38.999 80.128L43.125 77.814C45.394 76.541 49.332 73.557 51.875 71.183C54.419 68.809 57.753 66.612 59.286 66.301C60.818 65.99 62.501 64.932 63.027 63.949C63.553 62.967 65.396 61.852 67.123 61.473C68.85 61.094 72.866 59.257 76.049 57.392C79.232 55.526 82.293 54 82.851 54C84.088 54 85.349 50.374 84.558 49.094C84.244 48.586 84.511 47.996 85.152 47.783C87.548 46.984 84.854 41.988 78.699 35.814C70.636 27.726 62.468 22.847 55.941 22.22C51.296 21.774 50.77 21.966 47.739 25.217ZM49.807 26.75C48.981 27.713 47.972 29.175 47.565 30C47.159 30.825 47.653 30.546 48.663 29.38C49.673 28.214 51.4 26.766 52.5 26.161C54.039 25.314 54.132 25.054 52.905 25.03C52.028 25.014 50.634 25.787 49.807 26.75ZM62 27.902C62 28.398 63.238 29.243 64.75 29.78C66.262 30.316 69.75 32.702 72.5 35.081C75.25 37.46 76.375 38.149 75 36.612C72.454 33.767 63.736 27 62.616 27C62.277 27 62 27.406 62 27.902ZM235.488 29.881C226.171 33.293 212 44.548 212 48.535C212 50.945 213.153 50.279 219.415 44.25C222.7 41.088 224.738 39.386 223.944 40.47C223.15 41.553 219.897 44.971 216.716 48.065C211.609 53.031 211.039 53.971 211.851 56.095C212.726 58.382 216.889 62.168 225.217 68.25C227.288 69.762 229.328 71 229.751 71C230.173 71 231.081 71.9 231.768 73C232.579 74.299 234.1 75 236.109 75C238.436 75 240.344 76.127 243.822 79.557C248.054 83.729 248.552 83.966 249.722 82.365C250.425 81.404 251.036 79.691 251.079 78.559C251.122 77.426 251.384 77.059 251.659 77.741C252.26 79.228 250.161 86 249.1 86C248.69 86 246.239 83.73 243.653 80.956C241.066 78.182 238.51 76.185 237.972 76.517C236.661 77.327 237.883 79.299 243.73 85.815C249.834 92.616 251.252 92.188 254.254 82.641C256.165 76.566 256.5 73.261 256.5 60.5C256.5 37.926 253.252 29.356 244.348 28.44C242.138 28.213 238.366 28.826 235.488 29.881ZM238.5 32.402C233.464 33.999 225.648 37.982 226.29 38.624C226.557 38.89 228.234 38.22 230.018 37.135C231.802 36.051 233.951 35.428 234.795 35.751C235.729 36.11 236.071 35.924 235.671 35.277C234.916 34.055 239.319 32.691 241.835 33.367C242.751 33.613 244.663 34.071 246.085 34.385C248.012 34.81 248.953 35.916 249.782 38.728C250.883 42.464 252.683 55.322 253.32 64C253.632 68.241 253.661 68.182 253.825 62.974C254.065 55.393 252.241 41.642 250.378 36.986C249.288 34.262 247.943 32.827 245.77 32.07C244.082 31.481 242.656 31.03 242.601 31.067C242.545 31.104 240.7 31.705 238.5 32.402ZM43.677 38.27C41.687 43.598 40.621 48 41.321 48C41.616 48 42.61 45.412 43.528 42.25C44.447 39.088 45.652 36.219 46.206 35.875C46.857 35.471 46.867 35.036 46.235 34.645C45.697 34.313 44.545 35.944 43.677 38.27ZM78.741 41.15C79.424 41.994 79.806 42.868 79.589 43.092C79.373 43.316 80.375 44.383 81.817 45.462L84.438 47.424L82.172 44.242C80.926 42.492 79.365 40.735 78.703 40.338C77.817 39.806 77.827 40.02 78.741 41.15ZM39.015 72.25C39.024 72.938 39.417 74.109 39.888 74.853C40.85 76.372 43.675 75.301 45.955 72.555C47.636 70.529 46.601 70.542 44.571 72.571C43.143 74 42.857 74 41.429 72.571C39.53 70.673 38.995 70.602 39.015 72.25ZM43.392 131.75C37.904 143.97 37.318 147 40.443 147C41.867 147 49.262 128.234 48.393 126.826C47.228 124.942 45.833 126.315 43.392 131.75ZM53.219 128.25C51.922 129.83 47 144.846 47 147.222C47 148.2 47.589 149 48.309 149C49.428 149 52.948 140.245 56.048 129.75C56.926 126.778 55.185 125.855 53.219 128.25ZM60.933 131.125C59.95 132.962 55 146.77 55 147.675C55 147.854 55.842 148 56.87 148C58.292 148 59.371 146.225 61.37 140.593C64.116 132.859 64.67 129 63.035 129C62.505 129 61.559 129.956 60.933 131.125ZM217.29 138.25C215.521 140.567 209 156.828 209 158.923C209 160.066 209.571 161 210.268 161C211.662 161 220 142.124 220 138.969C220 136.735 218.709 136.393 217.29 138.25ZM208.208 139.25C206.727 141.035 202 153.879 202 156.119C202 157.154 202.615 158 203.367 158C204.74 158 211 142.991 211 139.7C211 137.699 209.672 137.485 208.208 139.25ZM224.636 140.78C223.399 142.781 218 157.219 218 158.526C218 159.337 218.788 159.993 219.75 159.984C221.038 159.973 222.359 157.617 224.75 151.065C226.538 146.167 228 141.674 228 141.08C228 139.843 225.361 139.607 224.636 140.78ZM45.095 199.306C43.222 199.963 40.313 202.21 38.629 204.301C32.062 212.456 35.553 225.224 47.829 237.942C54.052 244.39 54.15 244.576 53.613 249C53.313 251.475 52.765 261.038 52.395 270.25C51.885 282.964 52.012 287 52.921 287C53.579 287 53.846 287.44 53.514 287.977C52.617 289.428 54.851 296.839 56.803 298.886C57.736 299.865 58.642 301.304 58.816 302.083C59.251 304.032 61.812 306.522 62.585 305.748C62.933 305.4 62.349 303.852 61.287 302.308C55.893 294.468 53.461 284.017 54.402 272.727C55.257 262.478 57.738 249.281 59.549 245.349C60.347 243.616 61 241.697 61 241.085C61 240.473 61.411 239.191 61.913 238.236C62.415 237.281 64.002 232.675 65.441 228C66.879 223.325 68.493 218.118 69.028 216.429C71.028 210.112 70.297 207.734 65.398 204.629C60.702 201.652 51.901 197.958 49.739 198.056C49.058 198.087 46.968 198.65 45.095 199.306ZM281.929 221.478C278.048 223.589 274.33 229.648 271.152 239.046C266.072 254.062 259.707 264.032 252.977 267.512C250.501 268.792 250.255 269.509 249.651 277.197C249.065 284.667 246.298 298.503 244.419 303.363C243.761 305.066 244.079 305.166 248.1 304.526C253.181 303.718 267.327 297.206 271 293.986C272.375 292.78 274.636 290.828 276.024 289.647C281.736 284.789 292.737 267.001 291.383 264.811C290.98 264.159 291.14 263.969 291.765 264.355C293.003 265.12 294.09 262.118 296.968 250C299.584 238.981 299.703 231.006 297.25 230.985C295.836 230.972 295.771 230.798 296.91 230.077C298.092 229.328 298.11 228.68 297.019 226.045C294.774 220.626 287.529 218.433 281.929 221.478ZM42.125 244.5C43.569 246.15 44.996 248.175 45.296 249C45.766 250.292 45.853 250.283 45.921 248.937C45.964 248.077 44.537 246.052 42.75 244.437L39.5 241.5L42.125 244.5ZM68 317.32C68 321.797 70.464 326.094 74.693 328.992C78.468 331.578 87.513 333.961 93.645 333.984C98.559 334.003 111 330.359 111 328.901C111 328.34 111.45 328.16 112 328.5C112.55 328.84 113 328.615 113 328C113 327.385 113.52 327.203 114.155 327.595C114.876 328.041 115.037 327.869 114.585 327.138C114.187 326.494 113.461 326.215 112.972 326.518C112.482 326.82 111.276 326.645 110.291 326.129C109.306 325.612 104.225 324.65 99 323.991C89.229 322.757 77.003 319.114 71.258 315.724L68 313.802V317.32Z" fill="#FECB8C"/>
<path fill-rule="evenodd" clip-rule="evenodd" d="M42.746 3.07002C37.798 5.68202 34.637 10.914 30.523 23.301C24.469 41.53 21.657 59.939 22.168 78L22.4929 89.5L17.862 98.5C14.129 105.752 9.91195 117.129 7.38995 126.75C7.20995 127.438 5.97895 128 4.65395 128C-0.783049 128 -1.24205 133.767 4.09495 135.018C6.24295 135.522 6.53195 136.196 6.80095 141.339C7.06295 146.336 6.79895 147.346 4.80095 148.985C2.93495 150.517 2.70795 151.218 3.60195 152.687C4.20795 153.684 5.61895 154.637 6.73795 154.805C8.22595 155.027 9.37095 156.773 11.001 161.305C14.3 170.472 19.0649 177.534 28.0899 186.638L36.158 194.775L32.6979 199.309C23.4139 211.472 26.895 227.582 42.248 243.5C45.761 247.143 46.054 247.857 45.52 251.5C45.197 253.7 44.6619 261.151 44.3309 268.059C43.3579 288.332 46.052 298.722 55.449 310.934C58.007 314.258 60 317.923 60 319.302C60 323.505 62.693 328.462 67.266 332.678C78.038 342.607 96.937 344.361 112.95 336.917C118.804 334.195 120.014 333.979 126.058 334.574C132.606 335.22 132.745 335.295 134.413 339.074C141.263 354.6 169.913 357.225 194.5 344.58C197.25 343.166 200.656 342.006 202.068 342.004C206.074 341.998 214.928 339.112 221.311 335.733C227.746 332.326 237.905 322.72 241.117 317.005C243.038 313.587 243.757 313.187 250.678 311.685C270.623 307.357 286.348 294.3 296.759 273.422C303.786 259.331 306.26 250.115 306.4 237.5C306.543 224.665 303.197 217.356 295.599 213.905C288.182 210.537 279.737 212.037 273.656 217.803C270.045 221.226 265.826 229.518 263.122 238.5C261.964 242.35 259.61 247.938 257.892 250.918C254.383 257.004 253.661 256.661 252.618 248.412C251.562 240.066 247.098 226.09 242.452 216.579C240.054 211.673 238.351 207.241 238.666 206.731C238.981 206.222 241.104 204.611 243.384 203.152C255.906 195.139 265.19 185.189 269.886 174.75C271.913 170.244 272.954 169 274.701 169C278.223 169 279.364 165.733 276.925 162.632C275.178 160.411 274.991 159.205 275.581 153.989C276.082 149.562 276.77 147.658 278.133 146.929C280.53 145.646 280.538 142.358 278.147 141.079C276.811 140.364 276.115 138.469 275.653 134.293C274.782 126.422 271.583 113.915 268.356 105.758L265.688 99.015L267.389 91.275C272.176 69.489 271.776 42.936 266.402 25.835C264.227 18.913 263.015 16.76 259.256 13.137L254.728 8.77303L245.614 9.24403C229.828 10.06 210.453 17.848 189.803 31.676L178.663 39.136L164.582 37.434C156.837 36.498 143.026 35.632 133.891 35.511L117.282 35.29L110.799 29.895C99.372 20.385 92.752 16.011 81.5 10.531C61.512 0.798021 50.915 -1.24298 42.746 3.07002ZM47.0299 9.27902C43.2739 11.18 40.535 15.989 37.089 26.734C31.372 44.554 29.804 54.632 29.823 73.437L29.8389 90.375L23.982 102.437C18.498 113.731 14.0789 126.413 15.2279 127.561C15.5069 127.84 18.6069 128.527 22.1179 129.087C29.1549 130.211 31.4379 131.694 30.3799 134.453C29.7609 136.066 28.838 136.191 21.843 135.607L14 134.953V140.556V146.159L17.25 145.383C19.037 144.957 21.85 144.583 23.5 144.554C26.045 144.508 26.5 144.878 26.5 146.991C26.5 149.154 25.802 149.669 21.205 150.898C16.018 152.285 15.9229 152.376 16.5459 155.407C17.7179 161.106 21.651 168.445 27.094 175.088C32.161 181.274 42.6789 190.446 46.8899 192.352C47.9249 192.82 49.239 194.228 49.809 195.481C50.78 197.611 50.5869 197.792 46.8119 198.298C35.3049 199.842 31.3749 214.695 39.0749 227.538C40.9589 230.68 45.112 236.002 48.304 239.366C52.536 243.824 53.9659 246.021 53.5859 247.477C53.2979 248.575 52.5359 255.829 51.8899 263.598C50.0429 285.838 52.4749 296.139 62.4709 308.411C65.6679 312.337 66.825 314.748 67.326 318.532C67.861 322.578 68.708 324.186 71.892 327.193C80.2 335.043 97.284 336.336 110.545 330.12C117.323 326.943 117.735 326.877 126.721 327.547L135.941 328.233L139.073 333.114C145.133 342.558 150.659 345.012 165.799 344.987C174.368 344.973 183.668 342.512 190.983 338.324C193.571 336.843 198.776 335.194 203.168 334.463C207.386 333.761 213.236 331.991 216.168 330.53C222.759 327.245 230.995 319.34 235.677 311.806C239.371 305.861 239.517 305.782 249.113 304.524C255.014 303.75 266.854 298.082 273.311 292.941C287.098 281.964 299.051 256.09 299.155 237C299.212 226.426 297.302 222.206 291.452 219.982C283.778 217.064 275.744 223.355 272.002 235.214C268.206 247.242 263.364 256.629 258.185 262.002C250.151 270.337 248.042 268.509 245.52 251.027C243.707 238.452 239.282 225.229 233.414 214.848C227.56 204.491 227.643 203.927 235.654 199.541C247.573 193.015 254.903 186.203 260.983 176C266.781 166.27 266.727 165.982 258.729 163.939C251.121 161.996 248.843 160.572 249.714 158.303C250.319 156.727 254.228 156.802 264.163 158.578L267.827 159.234L268.534 153.571C268.924 150.457 269.019 147.686 268.747 147.414C268.475 147.142 263.213 147.423 257.054 148.039C244.805 149.263 243 149.019 243 146.138C243 143.571 244.269 143.192 257.598 141.777C268.818 140.585 269 140.526 268.992 138.033C268.98 134.059 265.594 121.466 261.516 110.227L257.788 99.953L259.865 91.227C265.309 68.364 265.117 45.048 259.338 26.913C255.527 14.955 252.185 13.413 237.745 16.954C221.997 20.816 200.655 31.436 186.5 42.454C181.529 46.323 179.986 47.029 177.5 46.572C166.551 44.557 145.08 42.718 131.323 42.618L115.145 42.5L106.823 35.589C92.47 23.672 78.2619 15.424 63.6159 10.507C55.3579 7.73503 50.7549 7.39402 47.0299 9.27902ZM75.8979 115.258C68.6519 120.073 66.143 130.667 70.769 136.913C77.665 146.228 88.413 146.123 95.408 136.674C96.925 134.625 97.483 132.425 97.44 128.674C97.299 116.522 85.2689 109.03 75.8979 115.258ZM179.672 123.528C172.079 131.121 171.223 140.645 177.593 146.652C182.314 151.104 188.355 151.992 194.212 149.093C199.576 146.438 201.855 143.336 202.639 137.62C203.897 128.439 196.785 120 187.788 120C183.871 120 182.684 120.516 179.672 123.528ZM114 140.918C114 144.18 115.129 146.015 118.072 147.537C121.839 149.485 123.815 149.383 128.238 147.012L131.947 145.024L135.613 147.512C141.338 151.397 149.396 150.255 150.618 145.385C151.603 141.463 150.04 140.799 147.35 143.996C145.96 145.648 143.94 147 142.861 147C139.7 147 135.482 144.353 134.216 141.575C132.721 138.294 132.116 138.34 128.662 142C124.308 146.613 117 145.861 117 140.8C117 139.81 116.325 139 115.5 139C114.675 139 114 139.863 114 140.918Z" fill="#BC6E48"/>
<path fill-rule="evenodd" clip-rule="evenodd" d="M122.5 93.613C111.621 96.162 95.8689 107.674 94.6689 113.953C94.1189 116.827 95.6299 120.347 97.0389 119.476C97.5549 119.157 97.7169 119.573 97.3999 120.4C97.0819 121.227 97.1999 122.488 97.6609 123.202C98.1229 123.916 98.5379 127.556 98.5849 131.291C98.6329 135.171 98.3179 137.529 97.8499 136.791C97.0129 135.472 96.7819 135.974 96.6019 139.5C96.5339 140.83 95.7579 141.537 94.2849 141.612C93.0669 141.673 90.8969 142.492 89.4629 143.432C87.7839 144.533 85.1909 145.07 82.1779 144.943C79.6049 144.834 76.3749 145.209 74.9999 145.777C70.6409 147.578 63.8169 155.273 60.6119 162C57.7629 167.982 57.5159 169.336 57.5079 179C57.5009 187.621 57.8459 190.072 59.4329 192.696C60.4969 194.453 61.8039 195.621 62.3379 195.291C62.8719 194.961 63.0439 195.119 62.7199 195.643C61.9589 196.876 63.1299 198.748 64.9259 199.17C66.6119 199.565 69.4109 202.125 70.7249 204.473C72.1039 206.938 66.0579 231.016 60.7989 244C57.1369 253.041 53.6129 276.907 54.9669 283.5C56.8659 292.744 60.8039 302.408 64.1629 306.064C65.4489 307.463 67.1409 309.825 67.9239 311.313C71.8099 318.696 102.15 325.839 136.5 327.456C139.8 327.612 144.119 328.421 146.099 329.255C152.892 332.118 170.131 329.586 175.08 325C175.97 324.175 178.588 321.754 180.897 319.62C187.294 313.709 189.779 309.965 192.665 301.89C194.938 295.529 195.307 292.886 195.318 282.906C195.333 268.063 192.798 259.848 186.456 254.186C179.28 247.78 172.159 243.059 171.586 244.33C171.295 244.974 171.145 244.826 171.251 244C171.356 243.175 170.112 239.803 168.485 236.507C165.925 231.32 165.554 229.523 165.725 223.155C165.835 219.108 166.43 215.187 167.048 214.442C167.666 213.697 167.836 212.505 167.426 211.794C167.015 211.082 167.027 210.813 167.451 211.195C167.875 211.577 169.351 210.548 170.73 208.909C174.397 204.551 178.129 203 184.95 203C189.115 203 191.005 202.611 191.015 201.75C191.026 200.857 191.283 200.898 191.914 201.896C192.415 202.686 193.515 203.017 194.451 202.657C195.38 202.301 195.848 202.437 195.519 202.969C195.198 203.489 196.334 204.639 198.045 205.523C201.085 207.095 201.21 207.069 203.636 204.316C209.71 197.423 211.797 187.557 209.496 176.615C206.097 160.452 197.247 151 185.513 151C182.807 151 180.363 150.287 178.769 149.033C177.393 147.951 175.91 147.388 175.474 147.783C175.037 148.177 174.972 147.988 175.329 147.363C175.686 146.738 175.308 145.671 174.489 144.991C173.67 144.311 172.993 143.023 172.985 142.128C172.972 140.754 172.826 140.726 172.053 141.948C170.686 144.109 171.974 135.282 173.723 130.5C176.761 122.196 174.924 116.068 167.15 108.577C162.382 103.983 154.561 98 153.324 98C152.943 98 150.577 96.988 148.066 95.75C144.419 93.953 141.587 93.464 134 93.322C128.775 93.225 123.6 93.356 122.5 93.613ZM112.161 140.547C110.801 143.531 110.645 145.109 111.906 143.118C112.595 142.03 112.924 142.184 113.45 143.842C115.148 149.192 123.698 151.21 129.252 147.571C131.426 146.146 131.859 146.22 135.385 148.615C139.234 151.231 143.718 151.533 148.414 149.492C149.873 148.858 150.134 148.975 149.51 149.985C148.961 150.872 149.077 151.07 149.862 150.585C150.506 150.187 150.782 149.456 150.475 148.959C150.168 148.463 150.649 146.939 151.545 145.572C154.471 141.105 149.788 138.917 146.576 143.25C145.658 144.488 145.177 144.943 145.506 144.261C145.896 143.453 145.567 143.229 144.558 143.616C143.707 143.943 143.26 144.612 143.565 145.105C143.869 145.597 143.191 146 142.059 146C140.069 146 138.432 144.688 134.76 140.15C132.611 137.495 131.909 137.477 129 140C127.732 141.1 127.1 142.003 127.597 142.006C128.094 142.01 127.196 142.693 125.602 143.524C123.03 144.865 122.446 144.867 120.427 143.544C119.176 142.724 117.862 141.141 117.508 140.027C116.611 137.199 113.551 137.496 112.161 140.547Z" fill="#FFE6C8"/>
</svg>
