<svg width="204" height="127" viewBox="0 0 204 127" fill="none" xmlns="http://www.w3.org/2000/svg">
<path d="M87.6719 52.0586C86.6693 52.0586 85.7513 51.9023 84.918 51.5898C84.0846 51.2773 83.3555 50.8867 82.7305 50.418C82.1185 49.9492 81.6302 49.4544 81.2656 48.9336C80.888 48.4128 80.5951 47.918 80.3867 47.4492C80.1914 46.9674 80.0547 46.5703 79.9766 46.2578C79.9115 45.9453 79.8789 45.7891 79.8789 45.7891C79.8398 45.6068 79.8203 45.431 79.8203 45.2617C79.8203 44.5846 80.0417 43.9857 80.4844 43.4648C80.9271 42.931 81.5065 42.5924 82.2227 42.4492C82.3789 42.4232 82.5417 42.4102 82.7109 42.4102C83.401 42.4102 84.0065 42.638 84.5273 43.0938C85.0612 43.5365 85.3997 44.1159 85.543 44.832C85.6341 45.3659 85.8815 45.75 86.2852 45.9844C86.7018 46.2057 87.1836 46.3164 87.7305 46.3164C88.3685 46.3164 88.8828 46.1341 89.2734 45.7695C89.6641 45.4049 89.8594 44.9622 89.8594 44.4414C89.8594 43.6211 89.612 42.9635 89.1172 42.4688C88.5573 41.8698 87.6849 41.1992 86.5 40.457C86.3438 40.3529 86.181 40.2487 86.0117 40.1445C84.944 39.5326 83.8698 38.6927 82.7891 37.625C82.151 36.987 81.6172 36.1992 81.1875 35.2617C80.7578 34.3112 80.543 33.2826 80.543 32.1758C80.543 30.8737 80.7643 29.6953 81.207 28.6406C81.6628 27.5859 82.2552 26.7005 82.9844 25.9844C84.4427 24.5781 86.0638 23.875 87.8477 23.875C88.8503 23.875 89.7357 24.0378 90.5039 24.3633C91.2852 24.6888 91.9622 25.0859 92.5352 25.5547C93.1081 26.0104 93.5768 26.4727 93.9414 26.9414C94.306 27.4102 94.5794 27.8073 94.7617 28.1328C94.944 28.4583 95.0352 28.6211 95.0352 28.6211C95.1784 28.9857 95.25 29.3568 95.25 29.7344C95.25 30.2943 95.0938 30.8216 94.7812 31.3164C94.4688 31.7982 94.0391 32.1562 93.4922 32.3906C93.1146 32.5469 92.7435 32.625 92.3789 32.625C91.806 32.625 91.2786 32.4622 90.7969 32.1367C90.3151 31.8112 89.9635 31.3685 89.7422 30.8086C89.7422 30.8086 89.7096 30.75 89.6445 30.6328C89.5794 30.5026 89.4753 30.3594 89.332 30.2031C89.2018 30.0469 89.026 29.9102 88.8047 29.793C88.5833 29.6628 88.3164 29.5977 88.0039 29.5977C87.4961 29.5977 87.0794 29.793 86.7539 30.1836C86.4284 30.5612 86.2656 31.1146 86.2656 31.8438C86.2656 32.2083 86.3112 32.5404 86.4023 32.8398C86.4935 33.1263 86.6693 33.4062 86.9297 33.6797C87.4896 34.2266 88.388 34.8841 89.625 35.6523C89.7292 35.7305 89.8333 35.8021 89.9375 35.8672C90.4974 36.2318 91.0703 36.6354 91.6562 37.0781C92.2552 37.5208 92.8411 38.0547 93.4141 38.6797C94.026 39.3698 94.5404 40.2031 94.957 41.1797C95.3737 42.1432 95.582 43.2044 95.582 44.3633C95.582 45.5612 95.3281 46.6615 94.8203 47.6641C94.3255 48.6667 93.694 49.4935 92.9258 50.1445C92.1445 50.7826 91.3047 51.2643 90.4062 51.5898C89.5078 51.9023 88.5964 52.0586 87.6719 52.0586ZM81.9688 30.4375C82.0339 30.4375 82.0924 30.418 82.1445 30.3789C82.2096 30.3398 82.2487 30.2812 82.2617 30.2031C82.5612 28.8229 83.1211 27.6706 83.9414 26.7461C84.7617 25.8216 85.7383 25.2943 86.8711 25.1641C86.9492 25.151 87.0143 25.1185 87.0664 25.0664C87.1185 25.0143 87.1445 24.9492 87.1445 24.8711C87.1055 24.6888 87.0143 24.5977 86.8711 24.5977H86.832C85.543 24.7409 84.4427 25.3203 83.5312 26.3359C82.6198 27.3516 82.0143 28.6016 81.7148 30.0859L81.6953 30.1641C81.6953 30.2292 81.7148 30.2878 81.7539 30.3398C81.793 30.3919 81.8516 30.4245 81.9297 30.4375H81.9688ZM81.4805 32.9961C81.6107 32.9961 81.7018 32.9115 81.7539 32.7422C81.806 32.3125 81.8841 31.8763 81.9883 31.4336V31.375C81.9883 31.2839 81.9557 31.2122 81.8906 31.1602C81.8385 31.1081 81.7734 31.082 81.6953 31.082C81.6302 31.082 81.5716 31.1081 81.5195 31.1602C81.4674 31.1992 81.4349 31.2513 81.4219 31.3164C81.3958 31.4596 81.3698 31.6029 81.3438 31.7461C81.2786 32.0586 81.2266 32.3711 81.1875 32.6836L81.168 32.7227C81.168 32.7878 81.194 32.8464 81.2461 32.8984C81.2982 32.9505 81.3633 32.9831 81.4414 32.9961H81.4805ZM89.957 46.5898C90.0091 46.5898 90.0612 46.5703 90.1133 46.5312C90.6602 46.1146 90.9922 45.6068 91.1094 45.0078C91.1615 44.7604 91.1875 44.5195 91.1875 44.2852C91.1875 43.9727 91.1484 43.6797 91.0703 43.4062C91.0443 43.3411 91.0052 43.2891 90.9531 43.25C90.901 43.2109 90.8424 43.1914 90.7773 43.1914C90.6862 43.1914 90.6146 43.224 90.5625 43.2891C90.5104 43.3411 90.4844 43.4062 90.4844 43.4844L90.5039 43.5625C90.569 43.8099 90.6016 44.0703 90.6016 44.3438C90.6016 44.513 90.5885 44.6888 90.5625 44.8711C90.4583 45.3398 90.1979 45.737 89.7812 46.0625C89.7031 46.1276 89.6641 46.2057 89.6641 46.2969C89.6641 46.362 89.6836 46.4206 89.7227 46.4727C89.7878 46.5508 89.8659 46.5898 89.957 46.5898ZM81.0508 46.7656L81.168 46.7461C81.2852 46.681 81.3438 46.5964 81.3438 46.4922L81.3242 46.375C81.194 46.0755 81.1289 45.7435 81.1289 45.3789L81.168 45.0664C81.207 44.5846 81.4219 44.168 81.8125 43.8164C81.8776 43.7513 81.9102 43.6797 81.9102 43.6016C81.9102 43.5365 81.8841 43.4779 81.832 43.4258C81.7799 43.3607 81.7148 43.3216 81.6367 43.3086C81.5586 43.3086 81.4935 43.3346 81.4414 43.3867C80.9206 43.8555 80.6406 44.3893 80.6016 44.9883C80.5755 45.1315 80.5625 45.2682 80.5625 45.3984C80.5625 45.8411 80.6406 46.2383 80.7969 46.5898C80.8099 46.6419 80.8424 46.6875 80.8945 46.7266C80.9466 46.7526 80.9987 46.7656 81.0508 46.7656ZM111.324 52C110.387 52 109.592 51.5768 108.941 50.7305C108.512 51.1081 108.004 51.4141 107.418 51.6484C106.845 51.8828 106.168 52 105.387 52C104.371 52 103.486 51.8047 102.73 51.4141C101.975 51.0104 101.279 50.4245 100.641 49.6562C99.9896 48.875 99.5143 48.0026 99.2148 47.0391C98.9284 46.0625 98.7852 45.0469 98.7852 43.9922V34.5977C98.7852 33.8164 99.0521 33.1523 99.5859 32.6055C100.12 32.0456 100.79 31.7526 101.598 31.7266H101.637C102.431 31.7266 103.108 32.0065 103.668 32.5664C104.228 33.1263 104.508 33.8034 104.508 34.5977V43.9922C104.521 44.6953 104.69 45.2552 105.016 45.6719C105.354 46.0755 105.784 46.2773 106.305 46.2773C106.799 46.2773 107.203 46.1081 107.516 45.7695C107.828 45.418 108.076 45.0143 108.258 44.5586C108.44 44.1029 108.577 43.6862 108.668 43.3086V42.4102C108.668 39.7539 108.596 37.2018 108.453 34.7539V34.5586C108.453 33.7643 108.733 33.0872 109.293 32.5273C109.853 31.9544 110.53 31.668 111.324 31.668H111.383C112.151 31.707 112.796 31.987 113.316 32.5078C113.837 33.0156 114.124 33.6471 114.176 34.4023C114.332 36.8763 114.41 39.4479 114.41 42.1172C114.41 44.5391 114.332 46.9284 114.176 49.2852C114.033 50.6003 113.329 51.4727 112.066 51.9023C111.819 51.9674 111.572 52 111.324 52ZM100.055 39.7539C100.133 39.7539 100.198 39.7279 100.25 39.6758C100.302 39.6237 100.328 39.5651 100.328 39.5L100.289 37.2148C100.289 36.1081 100.341 35.3073 100.445 34.8125C100.523 34.4089 100.647 34.1094 100.816 33.9141C100.999 33.7057 101.266 33.5299 101.617 33.3867C101.734 33.3216 101.793 33.237 101.793 33.1328C101.793 33.0547 101.767 32.9896 101.715 32.9375C101.663 32.8724 101.591 32.8398 101.5 32.8398L101.383 32.8594C100.589 33.1589 100.087 33.7708 99.8789 34.6953C99.7747 35.2422 99.7227 36.0299 99.7227 37.0586C99.7227 37.7357 99.7357 38.543 99.7617 39.4805C99.7617 39.5586 99.7878 39.6237 99.8398 39.6758C99.9049 39.7279 99.9766 39.7539 100.055 39.7539ZM109.918 39.7539C110.009 39.7539 110.081 39.7279 110.133 39.6758C110.185 39.6107 110.211 39.5391 110.211 39.4609L110.035 34.2656C110.035 34.1875 110.009 34.1224 109.957 34.0703C109.905 34.0182 109.833 33.9922 109.742 33.9922C109.664 33.9922 109.599 34.0247 109.547 34.0898C109.495 34.1419 109.469 34.207 109.469 34.2852L109.625 39.4609C109.625 39.5521 109.651 39.6237 109.703 39.6758C109.768 39.7279 109.84 39.7539 109.918 39.7539ZM99.9961 42.3906C100.074 42.3906 100.139 42.3646 100.191 42.3125C100.257 42.2604 100.289 42.1953 100.289 42.1172L100.328 40.7695C100.328 40.6914 100.296 40.6263 100.23 40.5742C100.178 40.5091 100.113 40.4766 100.035 40.4766H99.9961C99.931 40.4766 99.8724 40.5026 99.8203 40.5547C99.7812 40.6068 99.7552 40.6719 99.7422 40.75L99.7227 42.0977C99.7227 42.1758 99.7487 42.2474 99.8008 42.3125C99.8529 42.3646 99.918 42.3906 99.9961 42.3906ZM107.398 47.5078L107.516 47.4883C108.753 46.8112 109.534 45.7109 109.859 44.1875V44.1289C109.859 44.0508 109.833 43.9857 109.781 43.9336C109.729 43.8685 109.664 43.8359 109.586 43.8359C109.521 43.8359 109.462 43.862 109.41 43.9141C109.358 43.9531 109.326 44.0052 109.312 44.0703C108.987 45.4375 108.303 46.401 107.262 46.9609C107.158 47.026 107.105 47.1172 107.105 47.2344L107.125 47.3516C107.203 47.4557 107.294 47.5078 107.398 47.5078ZM120.934 52H120.758C120.003 52 119.352 51.7461 118.805 51.2383C118.271 50.7174 117.971 50.0599 117.906 49.2656C117.763 46.8438 117.691 44.3177 117.691 41.6875C117.691 39.2135 117.763 36.7786 117.906 34.3828C117.971 33.6276 118.258 33.0026 118.766 32.5078C119.273 32.013 119.898 31.7396 120.641 31.6875H120.797C121.799 31.6875 122.613 32.1562 123.238 33.0938C123.694 32.6901 124.208 32.3516 124.781 32.0781C125.354 31.8047 126.005 31.668 126.734 31.668C127.672 31.668 128.486 31.8438 129.176 32.1953C129.879 32.5339 130.53 33.0286 131.129 33.6797C131.702 33.1198 132.379 32.6445 133.16 32.2539C133.954 31.8633 134.853 31.668 135.855 31.668C136.871 31.668 137.854 31.8698 138.805 32.2734C139.755 32.6771 140.569 33.263 141.246 34.0312C141.897 34.7995 142.366 35.6719 142.652 36.6484C142.952 37.612 143.102 38.6276 143.102 39.6953V49.0898C143.102 49.8841 142.822 50.5612 142.262 51.1211C141.702 51.681 141.025 51.9609 140.23 51.9609C139.436 51.9609 138.759 51.681 138.199 51.1211C137.639 50.5612 137.359 49.8841 137.359 49.0898V40.0078C137.359 39.2786 137.242 38.6667 137.008 38.1719C136.773 37.6641 136.389 37.4102 135.855 37.4102C135.439 37.4102 135.074 37.5859 134.762 37.9375C134.449 38.276 134.182 38.6862 133.961 39.168C133.74 39.6497 133.564 40.112 133.434 40.5547C133.408 40.6719 133.362 40.7826 133.297 40.8867V49.1289C133.297 49.9102 133.017 50.5807 132.457 51.1406C131.91 51.6875 131.24 51.9609 130.445 51.9609C129.651 51.9609 128.974 51.681 128.414 51.1211C127.854 50.5612 127.574 49.8841 127.574 49.0898V39.6953C127.574 38.9792 127.424 38.4193 127.125 38.0156C126.826 37.612 126.474 37.4102 126.07 37.4102C125.628 37.4102 125.243 37.599 124.918 37.9766C124.592 38.3542 124.326 38.7839 124.117 39.2656C123.909 39.7474 123.753 40.1771 123.648 40.5547C123.596 40.75 123.518 40.9323 123.414 41.1016C123.414 43.8099 123.486 46.4206 123.629 48.9336L123.648 49.1484C123.648 49.8906 123.388 50.5352 122.867 51.082C122.359 51.6289 121.715 51.9349 120.934 52ZM124.078 34.1094C124.143 34.1094 124.208 34.0833 124.273 34.0312C124.521 33.7969 124.872 33.5755 125.328 33.3672C125.784 33.1458 126.22 33.0221 126.637 32.9961C126.715 32.9961 126.78 32.9701 126.832 32.918C126.884 32.8529 126.91 32.7812 126.91 32.7031C126.91 32.625 126.878 32.5599 126.812 32.5078C126.76 32.4557 126.695 32.4297 126.617 32.4297C126.096 32.4557 125.589 32.5859 125.094 32.8203C124.599 33.0547 124.195 33.3216 123.883 33.6211C123.818 33.6862 123.785 33.7578 123.785 33.8359C123.785 33.901 123.811 33.9661 123.863 34.0312C123.928 34.0833 124 34.1094 124.078 34.1094ZM133.082 34.1094C133.16 34.1094 133.232 34.0833 133.297 34.0312C133.544 33.7969 133.896 33.5755 134.352 33.3672C134.807 33.1458 135.237 33.0221 135.641 32.9961C135.719 32.9961 135.784 32.9701 135.836 32.918C135.901 32.8529 135.934 32.7812 135.934 32.7031C135.934 32.625 135.901 32.5599 135.836 32.5078C135.784 32.4557 135.719 32.4297 135.641 32.4297C135.107 32.4557 134.592 32.5859 134.098 32.8203C133.603 33.0547 133.199 33.3216 132.887 33.6211C132.835 33.6732 132.809 33.7383 132.809 33.8164C132.809 33.8945 132.835 33.9661 132.887 34.0312C132.952 34.0833 133.017 34.1094 133.082 34.1094ZM119.059 39.7539C119.15 39.7539 119.221 39.7279 119.273 39.6758C119.326 39.6107 119.352 39.5391 119.352 39.4609L119.312 37.0391C119.312 36.0365 119.358 35.2943 119.449 34.8125C119.54 34.4089 119.671 34.1094 119.84 33.9141C120.022 33.7057 120.283 33.5299 120.621 33.3867C120.738 33.3216 120.797 33.237 120.797 33.1328C120.797 33.0547 120.771 32.9896 120.719 32.9375C120.667 32.8724 120.595 32.8398 120.504 32.8398L120.387 32.8594C119.605 33.1589 119.104 33.7708 118.883 34.6953C118.779 35.2422 118.727 36.0299 118.727 37.0586C118.727 37.7357 118.74 38.543 118.766 39.4805C118.766 39.5586 118.792 39.6237 118.844 39.6758C118.909 39.7279 118.98 39.7539 119.059 39.7539ZM119 42.3906C119.182 42.3906 119.28 42.2995 119.293 42.1172L119.332 40.7695C119.332 40.6914 119.306 40.6263 119.254 40.5742C119.202 40.5091 119.13 40.4766 119.039 40.4766H119.02C118.941 40.4766 118.876 40.5026 118.824 40.5547C118.785 40.6068 118.766 40.6719 118.766 40.75L118.727 42.0977C118.727 42.1758 118.753 42.2474 118.805 42.3125C118.857 42.3646 118.922 42.3906 119 42.3906ZM129.078 46.7852C129.156 46.7852 129.221 46.7591 129.273 46.707C129.339 46.6549 129.371 46.5898 129.371 46.5117V41.3164C129.371 41.2383 129.345 41.1732 129.293 41.1211C129.254 41.069 129.195 41.043 129.117 41.043H129.078C129 41.043 128.935 41.069 128.883 41.1211C128.831 41.1732 128.805 41.2383 128.805 41.3164V46.5117C128.805 46.5898 128.831 46.6549 128.883 46.707C128.935 46.7591 129 46.7852 129.078 46.7852ZM139.039 46.7852C139.104 46.7852 139.156 46.7591 139.195 46.707C139.247 46.6549 139.273 46.5898 139.273 46.5117C139.273 46.3424 139.273 45.8737 139.273 45.1055C139.273 44.3372 139.273 43.5755 139.273 42.8203C139.286 42.0521 139.293 41.5508 139.293 41.3164C139.293 41.2383 139.267 41.1732 139.215 41.1211C139.163 41.069 139.104 41.043 139.039 41.043H139C138.922 41.043 138.85 41.069 138.785 41.1211C138.733 41.1732 138.707 41.2383 138.707 41.3164V46.5117C138.707 46.668 138.805 46.7591 139 46.7852H139.039ZM160.328 40.8672H149.176C148.382 40.8672 147.704 40.5872 147.145 40.0273C146.585 39.4674 146.305 38.7904 146.305 37.9961C146.305 37.2148 146.578 36.5443 147.125 35.9844C147.685 35.4245 148.355 35.1445 149.137 35.1445H160.367C161.148 35.1445 161.812 35.4245 162.359 35.9844C162.919 36.5443 163.199 37.2148 163.199 37.9961C163.199 38.7904 162.919 39.4674 162.359 40.0273C161.799 40.5872 161.122 40.8672 160.328 40.8672ZM147.652 37.3516C147.77 37.3516 147.861 37.293 147.926 37.1758C148.069 36.7591 148.323 36.4857 148.688 36.3555C148.831 36.2904 148.902 36.1992 148.902 36.082C148.902 36.0169 148.876 35.9583 148.824 35.9062C148.785 35.8411 148.72 35.8086 148.629 35.8086H148.531C148.232 35.9128 147.991 36.069 147.809 36.2773C147.626 36.4857 147.49 36.707 147.398 36.9414L147.359 37.0781C147.359 37.1823 147.418 37.2669 147.535 37.332L147.652 37.3516ZM174.82 52C173.635 52 172.464 51.7201 171.305 51.1602C170.159 50.5872 169.208 49.7604 168.453 48.6797C167.724 47.599 167.203 46.3555 166.891 44.9492C166.578 43.5299 166.422 41.9284 166.422 40.1445C166.422 35.7305 166.48 32.3711 166.598 30.0664C166.715 27.7617 166.773 26.6094 166.773 26.6094C166.839 25.8542 167.125 25.2292 167.633 24.7344C168.141 24.2396 168.772 23.9661 169.527 23.9141H169.684C170.491 23.9531 171.161 24.2526 171.695 24.8125C172.242 25.3594 172.516 26.0234 172.516 26.8047L172.496 27.0391C172.496 27.0391 172.438 28.1393 172.32 30.3398C172.203 32.5404 172.145 35.8086 172.145 40.1445C172.145 41.6029 172.255 42.7682 172.477 43.6406C172.698 44.5 172.939 45.1055 173.199 45.457C173.564 46.0039 174.104 46.2773 174.82 46.2773C175.549 46.2773 176.09 46.0169 176.441 45.4961C176.689 45.1445 176.923 44.5391 177.145 43.6797C177.366 42.8073 177.477 41.6289 177.477 40.1445C177.477 35.5221 177.418 32.2148 177.301 30.2227C177.197 28.2174 177.145 27.2148 177.145 27.2148L177.125 26.9023C177.125 26.1732 177.366 25.5417 177.848 25.0078C178.342 24.474 178.967 24.168 179.723 24.0898L179.996 24.0703C180.738 24.0703 181.376 24.3242 181.91 24.832C182.457 25.3268 182.77 25.9518 182.848 26.707C182.848 26.707 182.906 27.7747 183.023 29.9102C183.141 32.0456 183.199 35.457 183.199 40.1445C183.199 41.9544 183.043 43.569 182.73 44.9883C182.418 46.4076 181.897 47.651 181.168 48.7188C180.4 49.7995 179.436 50.6198 178.277 51.1797C177.132 51.7266 175.979 52 174.82 52ZM167.555 31.375C167.62 31.375 167.678 31.349 167.73 31.2969C167.783 31.2448 167.809 31.1797 167.809 31.1016C167.913 28.7969 168.049 27.2734 168.219 26.5312C168.323 26.1276 168.453 25.8216 168.609 25.6133C168.779 25.4049 169.007 25.2161 169.293 25.0469C169.384 24.9818 169.43 24.8971 169.43 24.793C169.43 24.7279 169.404 24.6628 169.352 24.5977C169.299 24.5326 169.228 24.5 169.137 24.5C169.085 24.5 169.033 24.5195 168.98 24.5586C168.342 24.9102 167.906 25.5156 167.672 26.375C167.464 27.2214 167.32 28.7904 167.242 31.082C167.242 31.1602 167.268 31.2318 167.32 31.2969C167.372 31.349 167.438 31.375 167.516 31.375H167.555ZM178.336 32.6836C178.414 32.6836 178.479 32.6576 178.531 32.6055C178.583 32.5534 178.609 32.4948 178.609 32.4297L178.453 27.2148C178.453 27.1237 178.421 27.0521 178.355 27C178.303 26.9479 178.238 26.9219 178.16 26.9219C178.082 26.9219 178.017 26.9479 177.965 27C177.913 27.0521 177.887 27.1107 177.887 27.1758V27.2148C177.887 27.4102 177.9 27.8984 177.926 28.6797C177.952 29.4609 177.971 30.2292 177.984 30.9844C178.01 31.7266 178.03 32.2018 178.043 32.4102C178.043 32.4883 178.069 32.5534 178.121 32.6055C178.186 32.6576 178.258 32.6836 178.336 32.6836ZM167.438 34.0117C167.503 34.0117 167.561 33.9857 167.613 33.9336C167.665 33.8815 167.691 33.8164 167.691 33.7383C167.704 33.4909 167.717 33.263 167.73 33.0547C167.743 32.8724 167.757 32.651 167.77 32.3906C167.77 32.3125 167.743 32.2474 167.691 32.1953C167.639 32.1302 167.574 32.0977 167.496 32.0977H167.457C167.379 32.0977 167.314 32.1237 167.262 32.1758C167.223 32.2279 167.197 32.293 167.184 32.3711L167.125 33.7188C167.125 33.7969 167.151 33.8685 167.203 33.9336C167.255 33.9857 167.32 34.0117 167.398 34.0117H167.438ZM175.152 47.4492C175.777 47.4492 176.305 47.2539 176.734 46.8633C177.19 46.4857 177.509 46.0625 177.691 45.5938L177.711 45.4766C177.711 45.3984 177.685 45.3333 177.633 45.2812C177.581 45.2161 177.509 45.1836 177.418 45.1836C177.301 45.1836 177.216 45.2487 177.164 45.3789C177.008 45.7565 176.747 46.1081 176.383 46.4336C176.057 46.7201 175.654 46.8633 175.172 46.8633H174.996C174.931 46.8633 174.872 46.8893 174.82 46.9414C174.768 46.9935 174.736 47.0586 174.723 47.1367C174.723 47.2148 174.749 47.2865 174.801 47.3516C174.853 47.4036 174.924 47.4362 175.016 47.4492H175.152ZM189.723 59.5391C188.993 59.5391 188.362 59.2917 187.828 58.7969C187.294 58.3151 186.982 57.6966 186.891 56.9414C186.565 53.6602 186.402 50.0924 186.402 46.2383C186.402 42.2669 186.559 38.2891 186.871 34.3047C186.936 33.5495 187.223 32.9245 187.73 32.4297C188.251 31.9349 188.883 31.668 189.625 31.6289H189.742C190.497 31.6289 191.161 31.9023 191.734 32.4492C192.125 32.2539 192.522 32.0977 192.926 31.9805C193.421 31.8242 193.909 31.7266 194.391 31.6875L194.82 31.668C196.174 31.668 197.405 32.0521 198.512 32.8203C199.501 33.5495 200.27 34.4219 200.816 35.4375C201.376 36.4401 201.76 37.5339 201.969 38.7188C202.177 39.8906 202.281 41.1016 202.281 42.3516V42.4688C202.281 45.0208 201.656 47.2083 200.406 49.0312C199.755 49.9297 198.935 50.6523 197.945 51.1992C196.956 51.7331 195.901 52 194.781 52C193.831 52 192.984 51.8242 192.242 51.4727C192.32 53.2435 192.431 54.8646 192.574 56.3359L192.594 56.6875C192.594 57.4036 192.353 58.0286 191.871 58.5625C191.402 59.1094 190.79 59.4284 190.035 59.5195L189.723 59.5391ZM192.457 33.4648C192.509 33.4648 192.561 33.4518 192.613 33.4258C192.861 33.2695 193.186 33.1328 193.59 33.0156C193.993 32.8854 194.384 32.8203 194.762 32.8203C194.879 32.8203 194.996 32.8268 195.113 32.8398H195.152C195.23 32.8398 195.296 32.8203 195.348 32.7812C195.4 32.7422 195.432 32.6836 195.445 32.6055L195.465 32.5469C195.465 32.4818 195.439 32.4232 195.387 32.3711C195.348 32.319 195.289 32.2865 195.211 32.2734C195.042 32.2474 194.879 32.2344 194.723 32.2344H194.43C193.57 32.3385 192.861 32.5729 192.301 32.9375C192.21 33.0156 192.164 33.1003 192.164 33.1914C192.164 33.2435 192.177 33.2956 192.203 33.3477C192.281 33.4258 192.366 33.4648 192.457 33.4648ZM187.555 39.5977C187.633 39.5977 187.698 39.5716 187.75 39.5195C187.815 39.4674 187.848 39.3958 187.848 39.3047C187.874 36.987 187.978 35.444 188.16 34.6758C188.264 34.2721 188.408 33.9792 188.59 33.7969C188.785 33.6016 189.052 33.4388 189.391 33.3086C189.521 33.2435 189.586 33.1589 189.586 33.0547C189.586 32.9766 189.56 32.9115 189.508 32.8594C189.456 32.7943 189.384 32.7617 189.293 32.7617C189.293 32.7617 189.28 32.7617 189.254 32.7617C189.241 32.7617 189.221 32.7682 189.195 32.7812C188.401 33.0286 187.874 33.6081 187.613 34.5195C187.405 35.4049 187.294 37 187.281 39.3047V39.3438C187.281 39.4089 187.307 39.4674 187.359 39.5195C187.424 39.5716 187.49 39.5977 187.555 39.5977ZM194.488 46.2773C194.84 46.2773 195.172 46.1406 195.484 45.8672C195.797 45.5938 196.051 45.151 196.246 44.5391C196.454 43.9141 196.559 43.0742 196.559 42.0195C196.559 40.8607 196.428 39.9427 196.168 39.2656C195.908 38.5755 195.589 38.0807 195.211 37.7812C194.846 37.4818 194.495 37.332 194.156 37.332C193.701 37.332 193.323 37.4948 193.023 37.8203C192.724 38.1458 192.49 38.5234 192.32 38.9531C192.255 40.2682 192.21 41.6029 192.184 42.957C192.249 43.1003 192.301 43.2565 192.34 43.4258C192.405 43.8164 192.516 44.2331 192.672 44.6758C192.828 45.1055 193.049 45.4831 193.336 45.8086C193.635 46.1211 194.02 46.2773 194.488 46.2773ZM187.379 42.2344C187.457 42.2344 187.522 42.2083 187.574 42.1562C187.639 42.1042 187.678 42.0391 187.691 41.9609L187.77 40.5742C187.77 40.4961 187.743 40.431 187.691 40.3789C187.639 40.3268 187.568 40.3008 187.477 40.3008C187.398 40.3138 187.333 40.3464 187.281 40.3984C187.229 40.4505 187.203 40.5091 187.203 40.5742L187.105 41.9219C187.105 42 187.132 42.0716 187.184 42.1367C187.236 42.1888 187.301 42.2214 187.379 42.2344ZM195.602 47.5664C195.667 47.5664 195.719 47.5469 195.758 47.5078C196.279 47.1562 196.708 46.7005 197.047 46.1406C197.385 45.5807 197.607 45.0534 197.711 44.5586L197.73 44.5C197.73 44.4219 197.698 44.3568 197.633 44.3047C197.581 44.2396 197.509 44.207 197.418 44.207C197.366 44.207 197.314 44.2331 197.262 44.2852C197.21 44.3242 197.171 44.3763 197.145 44.4414C197.053 44.8451 196.852 45.3073 196.539 45.8281C196.227 46.349 195.862 46.7526 195.445 47.0391C195.354 47.1042 195.309 47.1823 195.309 47.2734C195.309 47.3255 195.328 47.3776 195.367 47.4297C195.432 47.5208 195.51 47.5664 195.602 47.5664ZM87.6719 98.0586C86.6693 98.0586 85.7513 97.9023 84.918 97.5898C84.0846 97.2773 83.3555 96.8867 82.7305 96.418C82.1185 95.9492 81.6302 95.4544 81.2656 94.9336C80.888 94.4128 80.5951 93.918 80.3867 93.4492C80.1914 92.9674 80.0547 92.5703 79.9766 92.2578C79.9115 91.9453 79.8789 91.7891 79.8789 91.7891C79.8398 91.6068 79.8203 91.431 79.8203 91.2617C79.8203 90.5846 80.0417 89.9857 80.4844 89.4648C80.9271 88.931 81.5065 88.5924 82.2227 88.4492C82.3789 88.4232 82.5417 88.4102 82.7109 88.4102C83.401 88.4102 84.0065 88.638 84.5273 89.0938C85.0612 89.5365 85.3997 90.1159 85.543 90.832C85.6341 91.3659 85.8815 91.75 86.2852 91.9844C86.7018 92.2057 87.1836 92.3164 87.7305 92.3164C88.3685 92.3164 88.8828 92.1341 89.2734 91.7695C89.6641 91.4049 89.8594 90.9622 89.8594 90.4414C89.8594 89.6211 89.612 88.9635 89.1172 88.4688C88.5573 87.8698 87.6849 87.1992 86.5 86.457C86.3438 86.3529 86.181 86.2487 86.0117 86.1445C84.944 85.5326 83.8698 84.6927 82.7891 83.625C82.151 82.987 81.6172 82.1992 81.1875 81.2617C80.7578 80.3112 80.543 79.2826 80.543 78.1758C80.543 76.8737 80.7643 75.6953 81.207 74.6406C81.6628 73.5859 82.2552 72.7005 82.9844 71.9844C84.4427 70.5781 86.0638 69.875 87.8477 69.875C88.8503 69.875 89.7357 70.0378 90.5039 70.3633C91.2852 70.6888 91.9622 71.0859 92.5352 71.5547C93.1081 72.0104 93.5768 72.4727 93.9414 72.9414C94.306 73.4102 94.5794 73.8073 94.7617 74.1328C94.944 74.4583 95.0352 74.6211 95.0352 74.6211C95.1784 74.9857 95.25 75.3568 95.25 75.7344C95.25 76.2943 95.0938 76.8216 94.7812 77.3164C94.4688 77.7982 94.0391 78.1562 93.4922 78.3906C93.1146 78.5469 92.7435 78.625 92.3789 78.625C91.806 78.625 91.2786 78.4622 90.7969 78.1367C90.3151 77.8112 89.9635 77.3685 89.7422 76.8086C89.7422 76.8086 89.7096 76.75 89.6445 76.6328C89.5794 76.5026 89.4753 76.3594 89.332 76.2031C89.2018 76.0469 89.026 75.9102 88.8047 75.793C88.5833 75.6628 88.3164 75.5977 88.0039 75.5977C87.4961 75.5977 87.0794 75.793 86.7539 76.1836C86.4284 76.5612 86.2656 77.1146 86.2656 77.8438C86.2656 78.2083 86.3112 78.5404 86.4023 78.8398C86.4935 79.1263 86.6693 79.4062 86.9297 79.6797C87.4896 80.2266 88.388 80.8841 89.625 81.6523C89.7292 81.7305 89.8333 81.8021 89.9375 81.8672C90.4974 82.2318 91.0703 82.6354 91.6562 83.0781C92.2552 83.5208 92.8411 84.0547 93.4141 84.6797C94.026 85.3698 94.5404 86.2031 94.957 87.1797C95.3737 88.1432 95.582 89.2044 95.582 90.3633C95.582 91.5612 95.3281 92.6615 94.8203 93.6641C94.3255 94.6667 93.694 95.4935 92.9258 96.1445C92.1445 96.7826 91.3047 97.2643 90.4062 97.5898C89.5078 97.9023 88.5964 98.0586 87.6719 98.0586ZM81.9688 76.4375C82.0339 76.4375 82.0924 76.418 82.1445 76.3789C82.2096 76.3398 82.2487 76.2812 82.2617 76.2031C82.5612 74.8229 83.1211 73.6706 83.9414 72.7461C84.7617 71.8216 85.7383 71.2943 86.8711 71.1641C86.9492 71.151 87.0143 71.1185 87.0664 71.0664C87.1185 71.0143 87.1445 70.9492 87.1445 70.8711C87.1055 70.6888 87.0143 70.5977 86.8711 70.5977H86.832C85.543 70.7409 84.4427 71.3203 83.5312 72.3359C82.6198 73.3516 82.0143 74.6016 81.7148 76.0859L81.6953 76.1641C81.6953 76.2292 81.7148 76.2878 81.7539 76.3398C81.793 76.3919 81.8516 76.4245 81.9297 76.4375H81.9688ZM81.4805 78.9961C81.6107 78.9961 81.7018 78.9115 81.7539 78.7422C81.806 78.3125 81.8841 77.8763 81.9883 77.4336V77.375C81.9883 77.2839 81.9557 77.2122 81.8906 77.1602C81.8385 77.1081 81.7734 77.082 81.6953 77.082C81.6302 77.082 81.5716 77.1081 81.5195 77.1602C81.4674 77.1992 81.4349 77.2513 81.4219 77.3164C81.3958 77.4596 81.3698 77.6029 81.3438 77.7461C81.2786 78.0586 81.2266 78.3711 81.1875 78.6836L81.168 78.7227C81.168 78.7878 81.194 78.8464 81.2461 78.8984C81.2982 78.9505 81.3633 78.9831 81.4414 78.9961H81.4805ZM89.957 92.5898C90.0091 92.5898 90.0612 92.5703 90.1133 92.5312C90.6602 92.1146 90.9922 91.6068 91.1094 91.0078C91.1615 90.7604 91.1875 90.5195 91.1875 90.2852C91.1875 89.9727 91.1484 89.6797 91.0703 89.4062C91.0443 89.3411 91.0052 89.2891 90.9531 89.25C90.901 89.2109 90.8424 89.1914 90.7773 89.1914C90.6862 89.1914 90.6146 89.224 90.5625 89.2891C90.5104 89.3411 90.4844 89.4062 90.4844 89.4844L90.5039 89.5625C90.569 89.8099 90.6016 90.0703 90.6016 90.3438C90.6016 90.513 90.5885 90.6888 90.5625 90.8711C90.4583 91.3398 90.1979 91.737 89.7812 92.0625C89.7031 92.1276 89.6641 92.2057 89.6641 92.2969C89.6641 92.362 89.6836 92.4206 89.7227 92.4727C89.7878 92.5508 89.8659 92.5898 89.957 92.5898ZM81.0508 92.7656L81.168 92.7461C81.2852 92.681 81.3438 92.5964 81.3438 92.4922L81.3242 92.375C81.194 92.0755 81.1289 91.7435 81.1289 91.3789L81.168 91.0664C81.207 90.5846 81.4219 90.168 81.8125 89.8164C81.8776 89.7513 81.9102 89.6797 81.9102 89.6016C81.9102 89.5365 81.8841 89.4779 81.832 89.4258C81.7799 89.3607 81.7148 89.3216 81.6367 89.3086C81.5586 89.3086 81.4935 89.3346 81.4414 89.3867C80.9206 89.8555 80.6406 90.3893 80.6016 90.9883C80.5755 91.1315 80.5625 91.2682 80.5625 91.3984C80.5625 91.8411 80.6406 92.2383 80.7969 92.5898C80.8099 92.6419 80.8424 92.6875 80.8945 92.7266C80.9466 92.7526 80.9987 92.7656 81.0508 92.7656ZM111.324 98C110.387 98 109.592 97.5768 108.941 96.7305C108.512 97.1081 108.004 97.4141 107.418 97.6484C106.845 97.8828 106.168 98 105.387 98C104.371 98 103.486 97.8047 102.73 97.4141C101.975 97.0104 101.279 96.4245 100.641 95.6562C99.9896 94.875 99.5143 94.0026 99.2148 93.0391C98.9284 92.0625 98.7852 91.0469 98.7852 89.9922V80.5977C98.7852 79.8164 99.0521 79.1523 99.5859 78.6055C100.12 78.0456 100.79 77.7526 101.598 77.7266H101.637C102.431 77.7266 103.108 78.0065 103.668 78.5664C104.228 79.1263 104.508 79.8034 104.508 80.5977V89.9922C104.521 90.6953 104.69 91.2552 105.016 91.6719C105.354 92.0755 105.784 92.2773 106.305 92.2773C106.799 92.2773 107.203 92.1081 107.516 91.7695C107.828 91.418 108.076 91.0143 108.258 90.5586C108.44 90.1029 108.577 89.6862 108.668 89.3086V88.4102C108.668 85.7539 108.596 83.2018 108.453 80.7539V80.5586C108.453 79.7643 108.733 79.0872 109.293 78.5273C109.853 77.9544 110.53 77.668 111.324 77.668H111.383C112.151 77.707 112.796 77.987 113.316 78.5078C113.837 79.0156 114.124 79.6471 114.176 80.4023C114.332 82.8763 114.41 85.4479 114.41 88.1172C114.41 90.5391 114.332 92.9284 114.176 95.2852C114.033 96.6003 113.329 97.4727 112.066 97.9023C111.819 97.9674 111.572 98 111.324 98ZM100.055 85.7539C100.133 85.7539 100.198 85.7279 100.25 85.6758C100.302 85.6237 100.328 85.5651 100.328 85.5L100.289 83.2148C100.289 82.1081 100.341 81.3073 100.445 80.8125C100.523 80.4089 100.647 80.1094 100.816 79.9141C100.999 79.7057 101.266 79.5299 101.617 79.3867C101.734 79.3216 101.793 79.237 101.793 79.1328C101.793 79.0547 101.767 78.9896 101.715 78.9375C101.663 78.8724 101.591 78.8398 101.5 78.8398L101.383 78.8594C100.589 79.1589 100.087 79.7708 99.8789 80.6953C99.7747 81.2422 99.7227 82.0299 99.7227 83.0586C99.7227 83.7357 99.7357 84.543 99.7617 85.4805C99.7617 85.5586 99.7878 85.6237 99.8398 85.6758C99.9049 85.7279 99.9766 85.7539 100.055 85.7539ZM109.918 85.7539C110.009 85.7539 110.081 85.7279 110.133 85.6758C110.185 85.6107 110.211 85.5391 110.211 85.4609L110.035 80.2656C110.035 80.1875 110.009 80.1224 109.957 80.0703C109.905 80.0182 109.833 79.9922 109.742 79.9922C109.664 79.9922 109.599 80.0247 109.547 80.0898C109.495 80.1419 109.469 80.207 109.469 80.2852L109.625 85.4609C109.625 85.5521 109.651 85.6237 109.703 85.6758C109.768 85.7279 109.84 85.7539 109.918 85.7539ZM99.9961 88.3906C100.074 88.3906 100.139 88.3646 100.191 88.3125C100.257 88.2604 100.289 88.1953 100.289 88.1172L100.328 86.7695C100.328 86.6914 100.296 86.6263 100.23 86.5742C100.178 86.5091 100.113 86.4766 100.035 86.4766H99.9961C99.931 86.4766 99.8724 86.5026 99.8203 86.5547C99.7812 86.6068 99.7552 86.6719 99.7422 86.75L99.7227 88.0977C99.7227 88.1758 99.7487 88.2474 99.8008 88.3125C99.8529 88.3646 99.918 88.3906 99.9961 88.3906ZM107.398 93.5078L107.516 93.4883C108.753 92.8112 109.534 91.7109 109.859 90.1875V90.1289C109.859 90.0508 109.833 89.9857 109.781 89.9336C109.729 89.8685 109.664 89.8359 109.586 89.8359C109.521 89.8359 109.462 89.862 109.41 89.9141C109.358 89.9531 109.326 90.0052 109.312 90.0703C108.987 91.4375 108.303 92.401 107.262 92.9609C107.158 93.026 107.105 93.1172 107.105 93.2344L107.125 93.3516C107.203 93.4557 107.294 93.5078 107.398 93.5078ZM120.895 98H120.719C119.964 98 119.312 97.7461 118.766 97.2383C118.232 96.7174 117.932 96.0599 117.867 95.2656C117.724 92.8438 117.652 90.3177 117.652 87.6875C117.652 85.2135 117.724 82.7786 117.867 80.3828C117.932 79.6276 118.219 79.0026 118.727 78.5078C119.234 78.013 119.859 77.7396 120.602 77.6875H120.758C121.76 77.6875 122.574 78.1562 123.199 79.0938C123.655 78.6901 124.169 78.3516 124.742 78.0781C125.315 77.8047 125.96 77.668 126.676 77.668C127.691 77.668 128.57 77.8698 129.312 78.2734C130.068 78.6771 130.764 79.263 131.402 80.0312C132.066 80.7995 132.542 81.6719 132.828 82.6484C133.115 83.612 133.258 84.6276 133.258 85.6953V95.1289C133.258 95.9102 132.978 96.5807 132.418 97.1406C131.871 97.6875 131.201 97.9609 130.406 97.9609C129.612 97.9609 128.935 97.681 128.375 97.1211C127.815 96.5612 127.535 95.8841 127.535 95.0898V85.6953C127.535 84.9792 127.379 84.4193 127.066 84.0156C126.767 83.612 126.422 83.4102 126.031 83.4102C125.589 83.4102 125.204 83.599 124.879 83.9766C124.553 84.3542 124.286 84.7839 124.078 85.2656C123.87 85.7474 123.714 86.1771 123.609 86.5547C123.557 86.75 123.479 86.9323 123.375 87.1016C123.375 89.8099 123.447 92.4206 123.59 94.9336L123.609 95.1484C123.609 95.8906 123.349 96.5352 122.828 97.082C122.32 97.6289 121.676 97.9349 120.895 98ZM123.941 80.1094C124.007 80.1094 124.072 80.0833 124.137 80.0312C124.384 79.7969 124.736 79.5755 125.191 79.3672C125.647 79.1458 126.083 79.0221 126.5 78.9961C126.578 78.9961 126.643 78.9701 126.695 78.918C126.747 78.8529 126.773 78.7812 126.773 78.7031C126.773 78.625 126.741 78.5599 126.676 78.5078C126.624 78.4557 126.559 78.4297 126.48 78.4297C125.947 78.4557 125.432 78.5859 124.938 78.8203C124.443 79.0547 124.046 79.3216 123.746 79.6211C123.681 79.6862 123.648 79.7578 123.648 79.8359C123.648 79.901 123.674 79.9661 123.727 80.0312C123.792 80.0833 123.863 80.1094 123.941 80.1094ZM118.922 85.7539C119 85.7539 119.065 85.7279 119.117 85.6758C119.182 85.6107 119.215 85.5391 119.215 85.4609L119.176 83.0391C119.176 82.0365 119.221 81.2943 119.312 80.8125C119.404 80.4089 119.534 80.1094 119.703 79.9141C119.885 79.7057 120.146 79.5299 120.484 79.3867C120.602 79.3216 120.66 79.237 120.66 79.1328C120.66 79.0547 120.634 78.9896 120.582 78.9375C120.53 78.8724 120.458 78.8398 120.367 78.8398L120.25 78.8594C119.456 79.1589 118.954 79.7708 118.746 80.6953C118.642 81.2422 118.59 82.0299 118.59 83.0586C118.59 83.7357 118.603 84.543 118.629 85.4805C118.629 85.5586 118.655 85.6237 118.707 85.6758C118.772 85.7279 118.844 85.7539 118.922 85.7539ZM118.863 88.3906C119.046 88.3906 119.143 88.2995 119.156 88.1172L119.195 86.7695C119.195 86.6914 119.169 86.6263 119.117 86.5742C119.065 86.5091 118.993 86.4766 118.902 86.4766H118.883C118.805 86.4766 118.74 86.5026 118.688 86.5547C118.648 86.6068 118.622 86.6719 118.609 86.75C118.609 87.0365 118.609 87.2708 118.609 87.4531C118.609 87.6354 118.603 87.8503 118.59 88.0977C118.59 88.1758 118.616 88.2474 118.668 88.3125C118.72 88.3646 118.785 88.3906 118.863 88.3906ZM128.98 92.7852C129.046 92.7852 129.104 92.7591 129.156 92.707C129.208 92.6549 129.234 92.5898 129.234 92.5117V87.3164C129.234 87.2383 129.208 87.1732 129.156 87.1211C129.117 87.069 129.059 87.043 128.98 87.043H128.941C128.863 87.043 128.798 87.069 128.746 87.1211C128.694 87.1732 128.668 87.2383 128.668 87.3164V92.5117C128.668 92.5898 128.694 92.6549 128.746 92.707C128.798 92.7591 128.863 92.7852 128.941 92.7852H128.98ZM144.059 98C142.952 98 141.904 97.7331 140.914 97.1992C139.924 96.6523 139.098 95.9297 138.434 95.0312C137.184 93.2083 136.559 91.0208 136.559 88.4688V88.3516C136.559 87.1016 136.663 85.8906 136.871 84.7188C137.092 83.5339 137.477 82.4401 138.023 81.4375C138.57 80.4219 139.332 79.5495 140.309 78.8203C141.415 78.0521 142.652 77.668 144.02 77.668C144.163 77.681 144.299 77.6875 144.43 77.6875C144.938 77.7266 145.426 77.8242 145.895 77.9805C146.129 78.0456 146.363 78.1302 146.598 78.2344C146.585 76.4375 146.546 74.7057 146.48 73.0391V72.9219C146.48 72.1667 146.741 71.5156 147.262 70.9688C147.783 70.4219 148.44 70.1224 149.234 70.0703H149.332C150.113 70.0703 150.777 70.3438 151.324 70.8906C151.884 71.4245 152.177 72.0951 152.203 72.9023C152.346 77.3164 152.418 81.7109 152.418 86.0859C152.418 89.4323 152.346 92.4661 152.203 95.1875C152.099 96.4245 151.467 97.2773 150.309 97.7461C149.996 97.8633 149.677 97.9219 149.352 97.9219C148.557 97.9219 147.848 97.6029 147.223 96.9648C146.793 97.2773 146.318 97.5312 145.797 97.7266C145.276 97.9089 144.697 98 144.059 98ZM147.633 78C147.711 78 147.776 77.974 147.828 77.9219C147.88 77.8568 147.906 77.7852 147.906 77.707L147.75 72.5312C147.75 72.4531 147.724 72.388 147.672 72.3359C147.62 72.2839 147.561 72.2578 147.496 72.2578H147.457C147.379 72.2578 147.314 72.2839 147.262 72.3359C147.21 72.388 147.184 72.4466 147.184 72.5117V72.5508C147.184 72.7461 147.197 73.2344 147.223 74.0156C147.249 74.7969 147.268 75.5586 147.281 76.3008C147.307 77.043 147.327 77.5182 147.34 77.7266C147.34 77.8047 147.366 77.8698 147.418 77.9219C147.483 77.974 147.555 78 147.633 78ZM138.473 83.8398C138.603 83.8398 138.701 83.7682 138.766 83.625C139.182 82.2708 139.846 81.1641 140.758 80.3047C141.669 79.4323 142.678 78.9961 143.785 78.9961C143.863 78.9961 143.928 78.9701 143.98 78.918C144.046 78.8529 144.078 78.7812 144.078 78.7031C144.078 78.625 144.046 78.5599 143.98 78.5078C143.928 78.4427 143.863 78.4102 143.785 78.4102C142.483 78.4492 141.337 78.9375 140.348 79.875C139.358 80.8125 138.642 82.0039 138.199 83.4492V83.5273C138.199 83.5924 138.212 83.651 138.238 83.7031C138.277 83.7552 138.329 83.7943 138.395 83.8203L138.473 83.8398ZM144.273 92.2773C144.703 92.2773 145.068 92.1146 145.367 91.7891C145.68 91.4635 145.934 91.0924 146.129 90.6758C146.337 90.2461 146.507 89.8555 146.637 89.5039C146.65 89.4909 146.656 89.4714 146.656 89.4453C146.682 88.1302 146.689 86.7565 146.676 85.3242C146.52 84.8424 146.246 84.3932 145.855 83.9766C145.465 83.5469 145.042 83.332 144.586 83.332C144.234 83.332 143.883 83.4753 143.531 83.7617C143.18 84.0352 142.88 84.4714 142.633 85.0703C142.398 85.6562 142.281 86.4245 142.281 87.375C142.281 88.8724 142.451 90.0638 142.789 90.9492C143.128 91.8346 143.622 92.2773 144.273 92.2773ZM137.594 86.3398C137.672 86.3398 137.737 86.3203 137.789 86.2812C137.854 86.2422 137.893 86.1836 137.906 86.1055C138.01 85.6888 138.128 85.2591 138.258 84.8164V84.7578C138.258 84.6667 138.232 84.5951 138.18 84.543C138.141 84.4779 138.076 84.4453 137.984 84.4453H137.965C137.913 84.4453 137.861 84.4648 137.809 84.5039C137.757 84.5299 137.717 84.5755 137.691 84.6406C137.652 84.7969 137.613 84.9466 137.574 85.0898C137.483 85.4023 137.405 85.7018 137.34 85.9883V86.0664C137.34 86.1315 137.359 86.1901 137.398 86.2422C137.438 86.2943 137.49 86.3268 137.555 86.3398H137.594ZM145.348 93.3906C145.4 93.3906 145.452 93.3776 145.504 93.3516C146.038 93.0391 146.493 92.6159 146.871 92.082C147.249 91.5352 147.503 91.0208 147.633 90.5391L147.652 90.4414C147.652 90.3633 147.62 90.2982 147.555 90.2461C147.503 90.194 147.431 90.168 147.34 90.168C147.288 90.168 147.236 90.1875 147.184 90.2266C147.145 90.2656 147.112 90.3177 147.086 90.3828C146.969 90.7865 146.734 91.2357 146.383 91.7305C146.031 92.2253 145.647 92.6029 145.23 92.8633C145.126 92.9284 145.074 93.013 145.074 93.1172L145.113 93.2539C145.178 93.3451 145.257 93.3906 145.348 93.3906ZM168.277 98C167.535 98 166.871 97.7201 166.285 97.1602C165.4 97.7201 164.358 98 163.16 98C162.04 98 160.986 97.7331 159.996 97.1992C159.007 96.6523 158.18 95.9297 157.516 95.0312C156.878 94.1328 156.402 93.1237 156.09 92.0039C155.79 90.8711 155.641 89.6536 155.641 88.3516C155.641 86.4115 155.96 84.5951 156.598 82.9023C157.249 81.2096 158.316 79.8294 159.801 78.7617C160.803 78.0716 161.988 77.7005 163.355 77.6484L163.883 77.6875C164.391 77.7135 164.885 77.8047 165.367 77.9609C165.732 78.0781 166.077 78.2409 166.402 78.4492C167.001 77.9674 167.639 77.7266 168.316 77.7266C169.098 77.7656 169.742 78.0391 170.25 78.5469C170.771 79.0547 171.064 79.6862 171.129 80.4414C171.311 83.0716 171.402 85.9297 171.402 89.0156C171.402 91.2682 171.311 93.3971 171.129 95.4023C170.96 96.5742 170.328 97.388 169.234 97.8438C168.922 97.9479 168.603 98 168.277 98ZM157.672 83.8203C157.724 83.8203 157.77 83.8008 157.809 83.7617C157.861 83.7227 157.9 83.6836 157.926 83.6445C158.329 82.2773 158.987 81.1641 159.898 80.3047C160.81 79.4323 161.819 78.9961 162.926 78.9961C163.004 78.9961 163.076 78.9701 163.141 78.918C163.206 78.8659 163.238 78.8008 163.238 78.7227C163.238 78.6445 163.206 78.5729 163.141 78.5078C163.076 78.4297 163.004 78.3906 162.926 78.3906C161.637 78.4427 160.497 78.9375 159.508 79.875C158.518 80.7995 157.802 81.9909 157.359 83.4492V83.5273C157.359 83.6576 157.424 83.7487 157.555 83.8008L157.672 83.8203ZM163.336 92.2773C163.648 92.2773 163.928 92.1406 164.176 91.8672C164.436 91.5807 164.671 91.2487 164.879 90.8711C165.087 90.4935 165.27 90.1224 165.426 89.7578C165.517 89.5755 165.595 89.4128 165.66 89.2695L165.621 85.4805C165.569 85.3112 165.471 85.0573 165.328 84.7188C165.198 84.3802 164.996 84.0677 164.723 83.7812C164.462 83.4818 164.117 83.332 163.688 83.332C163.023 83.332 162.47 83.7682 162.027 84.6406C161.598 85.5 161.376 86.75 161.363 88.3906C161.363 89.7578 161.565 90.7474 161.969 91.3594C162.372 91.9714 162.828 92.2773 163.336 92.2773ZM156.852 86.3398C156.969 86.3398 157.06 86.2682 157.125 86.125L157.438 84.7969L157.457 84.7188C157.457 84.6406 157.424 84.5755 157.359 84.5234C157.307 84.4714 157.242 84.4453 157.164 84.4453C157.099 84.4453 157.04 84.4648 156.988 84.5039C156.949 84.5299 156.93 84.5755 156.93 84.6406C156.76 85.0964 156.637 85.5521 156.559 86.0078V86.0664C156.559 86.1185 156.572 86.1706 156.598 86.2227C156.637 86.2747 156.689 86.3073 156.754 86.3203L156.852 86.3398ZM164.352 93.3906L164.488 93.3516C165.022 93.0391 165.478 92.6159 165.855 92.082C166.233 91.5352 166.493 91.0143 166.637 90.5195L166.656 90.4609C166.656 90.3958 166.624 90.3307 166.559 90.2656C166.493 90.2005 166.415 90.168 166.324 90.168C166.207 90.168 166.129 90.2331 166.09 90.3633C165.947 90.7669 165.699 91.2227 165.348 91.7305C165.009 92.2253 164.625 92.5964 164.195 92.8438C164.117 92.9089 164.078 92.9935 164.078 93.0977L164.117 93.2344C164.13 93.2865 164.156 93.3255 164.195 93.3516C164.247 93.3776 164.299 93.3906 164.352 93.3906ZM183.57 98.0586C181.318 98.0586 179.378 97.362 177.75 95.9688C176.591 94.901 175.751 93.6445 175.23 92.1992C174.723 90.7539 174.469 89.2565 174.469 87.707C174.469 85.7799 174.859 84.0612 175.641 82.5508C176.435 81.0273 177.483 79.8229 178.785 78.9375C180.1 78.0521 181.533 77.6094 183.082 77.6094C183.772 77.6094 184.462 77.7135 185.152 77.9219C185.855 78.1172 186.539 78.4492 187.203 78.918C187.893 79.3867 188.486 80.0443 188.98 80.8906C189.488 81.724 189.742 82.6615 189.742 83.7031C189.742 84.4974 189.56 85.3958 189.195 86.3984C188.844 87.388 188.212 88.2995 187.301 89.1328C185.908 90.3828 183.935 91.1641 181.383 91.4766C181.422 91.5156 181.461 91.5612 181.5 91.6133C181.526 91.6523 181.552 91.6849 181.578 91.7109C181.799 91.9193 182.047 92.0885 182.32 92.2188C182.607 92.349 182.958 92.4141 183.375 92.4141C183.922 92.4141 184.632 92.2643 185.504 91.9648C185.829 91.8477 186.155 91.7891 186.48 91.7891C187.066 91.7891 187.607 91.9583 188.102 92.2969C188.596 92.6354 188.954 93.1042 189.176 93.7031C189.293 94.0286 189.352 94.3477 189.352 94.6602C189.352 95.2591 189.176 95.806 188.824 96.3008C188.473 96.7956 187.997 97.1536 187.398 97.375C186.083 97.8307 184.807 98.0586 183.57 98.0586ZM176.754 83.625C176.871 83.625 176.962 83.5664 177.027 83.4492C177.535 82.1992 178.245 81.1901 179.156 80.4219C180.081 79.6406 181.064 79.25 182.105 79.25L182.477 79.2695C182.542 79.2695 182.6 79.25 182.652 79.2109C182.704 79.1589 182.737 79.0938 182.75 79.0156C182.75 78.8333 182.659 78.7292 182.477 78.7031C182.359 78.6901 182.242 78.6836 182.125 78.6836H182.086C180.888 78.6836 179.788 79.1133 178.785 79.9727C177.796 80.819 177.034 81.9062 176.5 83.2344L176.48 83.3516C176.48 83.4688 176.539 83.5534 176.656 83.6055L176.754 83.625ZM182.984 86.6328C183.427 86.6328 183.824 86.5221 184.176 86.3008C184.54 86.0664 184.833 85.7799 185.055 85.4414C185.354 84.9987 185.504 84.5365 185.504 84.0547C185.504 83.7552 185.432 83.4622 185.289 83.1758C185.263 83.1367 185.224 83.1042 185.172 83.0781C185.133 83.0391 185.087 83.0195 185.035 83.0195C184.957 83.0195 184.885 83.0521 184.82 83.1172C184.768 83.1693 184.742 83.2344 184.742 83.3125L184.781 83.4492C184.872 83.6315 184.918 83.8333 184.918 84.0547C184.918 84.4062 184.807 84.7643 184.586 85.1289C184.182 85.7409 183.655 86.0469 183.004 86.0469H182.945C182.867 86.0469 182.796 86.0729 182.73 86.125C182.678 86.1771 182.652 86.2422 182.652 86.3203C182.652 86.4896 182.743 86.5938 182.926 86.6328H182.984ZM180.426 85.8125C180.738 85.8125 181.181 85.7604 181.754 85.6562C182.327 85.5391 182.848 85.3503 183.316 85.0898C183.785 84.8164 184.02 84.4648 184.02 84.0352C184.02 83.8398 183.928 83.6771 183.746 83.5469C183.564 83.4167 183.342 83.3516 183.082 83.3516C182.613 83.3516 182.118 83.5404 181.598 83.918C181.077 84.2826 180.686 84.9141 180.426 85.8125ZM175.699 86.0664C175.764 86.0664 175.823 86.0469 175.875 86.0078C175.927 85.9688 175.96 85.9167 175.973 85.8516C176.064 85.5521 176.174 85.2396 176.305 84.9141C176.344 84.7969 176.383 84.6862 176.422 84.582L176.441 84.4844C176.441 84.4062 176.409 84.3411 176.344 84.2891C176.292 84.224 176.227 84.1914 176.148 84.1914C176.031 84.1914 175.947 84.2565 175.895 84.3867C175.725 84.8294 175.569 85.2591 175.426 85.6758L175.406 85.7734C175.406 85.8385 175.419 85.8971 175.445 85.9492C175.484 86.0013 175.536 86.0339 175.602 86.0469L175.699 86.0664ZM187.828 93.332C187.893 93.332 187.952 93.3125 188.004 93.2734C188.082 93.2083 188.121 93.1302 188.121 93.0391C188.121 92.987 188.102 92.9284 188.062 92.8633C187.867 92.6289 187.633 92.4661 187.359 92.375C187.099 92.2708 186.845 92.2188 186.598 92.2188H186.559C186.467 92.2318 186.402 92.2643 186.363 92.3164C186.324 92.3685 186.305 92.4271 186.305 92.4922C186.305 92.5703 186.324 92.6354 186.363 92.6875C186.415 92.7396 186.487 92.7721 186.578 92.7852C187.008 92.7852 187.353 92.9284 187.613 93.2148C187.678 93.293 187.75 93.332 187.828 93.332Z" fill="#FCB5BA"/>
<path d="M42.4647 2.6479C35.3316 -0.758972 26.2732 0.696044 22.6357 1.84941C5.81425 -4.96433 5.15772 8.68089 6.93212 16.3552L5.86748 18.7507L3.07278 29.5302L1.6089 39.9105C1.6089 42.0398 3.11714 44.0804 3.87127 44.8345L1.6089 49.6254C-1.79797 55.9068 0.987853 59.8726 2.80662 61.0704C0.464402 66.5001 4.8472 67.9462 7.33137 67.9906V69.1883L23.0349 112.173C33.2555 137.299 43.1745 122.642 46.8564 112.173L62.693 69.4544V67.8575C65.3546 67.9639 66.8185 67.0146 67.2177 66.5267C70.0923 66.4202 70.1898 63.3771 69.8793 61.8688C66.0466 44.941 63.7576 38.4023 63.0922 37.2489C66.3926 34.2679 64.9997 29.3528 63.8907 27.2678C59.4192 18.5377 56.0833 13.3387 54.9743 11.8305C57.3165 -2.32932 47.6105 -0.191159 42.4647 2.6479Z" fill="#7D1945"/>
<path d="M52.0346 2.79804C54.1639 4.50147 54.1639 8.83103 53.8977 10.7829L48.8406 6.25814L44.1828 3.19728C46.179 1.73339 49.373 0.668747 52.0346 2.79804Z" fill="#F7F7F5"/>
<path d="M49.9053 5.49456C48.9471 4.74931 47.288 4.74043 46.5783 4.82915C48.1752 5.68087 50.3489 7.57949 51.2361 8.42233C51.103 7.09152 51.103 6.42612 49.9053 5.49456Z" fill="#FF7B6B"/>
<path d="M8.65024 17.1674C9.39549 19.829 8.07356 18.72 7.31943 17.8328C6.47659 19.8734 4.49811 26.1637 3.327 35.0002C1.86311 46.0459 5.05705 42.852 7.71867 41.7874C9.84796 40.9356 12.2434 40.8114 13.175 40.8558C14.5945 40.8558 17.6199 40.9356 18.3651 41.255C19.2967 41.6543 23.6884 41.9204 26.4831 42.0535C28.7188 42.16 33.2702 40.0573 35.2664 38.9927C39.7379 35.6923 45.2918 35.8431 47.5098 36.3311C55.1753 38.4603 59.2209 37.6619 60.2856 36.9965C63.7989 35.8253 64.0562 32.2499 63.7457 30.6086C61.7228 25.1789 57.5796 18.0546 55.7608 15.1712C53.0992 10.6997 48.4414 7.09764 46.4452 5.85556C37.8215 -0.212928 27.7695 1.19773 23.8214 2.66162L24.753 3.59318C25.4983 4.87076 24.7086 4.83527 24.2207 4.65783C22.0914 1.99621 15.1712 -0.798484 10.2472 3.06086C5.32322 6.9202 7.71868 13.8404 8.65024 17.1674Z" fill="#F8F7F5"/>
<path d="M13.9735 14.2397L20.6275 8.65027C21.1028 8.25103 21.2929 6.92021 19.829 5.98864C18.6579 5.24339 17.6554 4.96836 17.3005 4.924C14.0001 4.60461 12.1104 6.92022 11.578 8.11794C11.4006 8.60591 11.0989 10.194 11.3119 12.6427C11.5248 15.0914 13.175 14.7276 13.9735 14.2397Z" fill="#FF786B"/>
<path d="M68.4035 62.1487C64.6772 44.6885 62.3261 38.5491 61.6164 37.6619C58.9547 39.6847 53.4985 38.9483 51.103 38.3273C41.5212 35.2664 37.928 39.525 33.6694 41.122C29.4108 42.7189 29.0116 44.0497 19.2967 42.5858C9.58181 41.122 8.65024 43.1182 7.5856 43.6505C6.73388 44.0763 5.63375 44.3602 5.19014 44.449C4.55136 45.6201 2.70596 50.0827 1.86312 52.1677C-1.01143 63.24 10.0698 62.1044 15.9697 60.1525C23.8214 57.2247 29.677 60.0194 31.5401 60.951C33.0306 61.6962 35.8874 62.8585 37.1295 63.3464C41.0687 65.1563 47.5542 63.9231 50.3045 63.0803C56.5859 61.3768 60.7292 62.3705 62.0156 63.0803C68.1906 66.7001 68.8471 63.9675 68.4035 62.1487Z" fill="#F5EEA7"/>
<path d="M64.8103 65.875C63.1069 64.3845 58.866 63.5239 57.3578 63.4795C54.6962 63.4795 52.4338 64.0119 51.6353 64.278C48.7608 65.1297 44.7595 65.5201 43.1182 65.6088C40.1904 65.7419 36.8634 64.8103 33.2702 63.2134C30.3956 61.9358 28.2575 61.1728 27.5477 60.951C23.2891 59.4605 18.2321 60.6848 16.2359 61.4833C9.42212 63.8255 5.14578 62.4592 3.85933 61.4833C2.1559 64.7837 4.56909 66.1411 5.98862 66.4073H63.8788C64.8369 66.4073 65.1652 66.1855 64.8103 65.875Z" fill="#E9B52D"/>
<path d="M61.4833 67.605H8.25101V68.8028L23.4222 109.792C33.1105 136.301 42.5415 120.837 46.0459 109.792L61.3502 68.9358L61.4833 67.605Z" fill="#EAB734"/>
<ellipse cx="53.2323" cy="17.8328" rx="2.66162" ry="2.66162" fill="#FE7C6E"/>
<ellipse cx="28.7454" cy="25.5515" rx="2.66162" ry="2.66162" fill="#FE7C6E"/>
<circle cx="30.6086" cy="21.2929" r="2.39545" fill="#992D5E"/>
<circle cx="48.9737" cy="16.2358" r="2.39545" fill="#992D5E"/>
<path d="M41.6543 22.8899C41.1219 22.9964 40.2791 22.047 39.9242 21.5591C39.6804 21.2484 39.525 21.2929 39.1257 21.9583C38.8063 22.4906 39.7024 23.156 40.1904 23.4222C42.1067 24.6998 43.2069 23.5109 43.5174 22.7568C45.6467 23.1827 46.2677 22.3132 46.3121 21.8252V20.4944C46.3121 19.5629 45.2475 19.2967 45.2475 20.3613C45.2475 21.426 45.2475 21.6922 44.582 21.8252C43.9166 21.9583 43.5174 21.426 43.3843 20.8937C43.2512 20.3614 42.0535 20.3614 42.3197 21.2929C42.5858 22.2245 42.3197 22.7568 41.6543 22.8899Z" fill="#912348"/>
<ellipse cx="20.3821" cy="48.9698" rx="6.04135" ry="1.84625" transform="rotate(8 20.3821 48.9698)" fill="#F3971A"/>
<circle cx="8.11794" cy="47.776" r="3.06086" fill="#FF796D"/>
<circle cx="35.2664" cy="53.0992" r="3.06086" fill="#FD766A"/>
<ellipse cx="11.0508" cy="45.3806" rx="0.964546" ry="1.59885" transform="rotate(5 11.0508 45.3806)" fill="#9E2664"/>
<ellipse cx="33.201" cy="49.7104" rx="1.08124" ry="1.73087" transform="rotate(5 33.201 49.7104)" fill="#A6296D"/>
<path d="M55.2285 86.6356C31.6732 84.2401 20.0065 75.235 9.04949 66.6735L7.58561 68.2704L7.98485 68.8028C34.601 87.4341 50.1714 87.9664 55.2285 88.7649V86.6356Z" fill="#7D1945"/>
<path d="M50.5707 101.214C28.9862 96.5319 25.0925 92.975 14.6389 85.9702L14.7658 87.7123L15.1468 88.1478C36.6043 99.7985 35.3346 98.2741 50.0628 102.738L50.5707 101.214Z" fill="#7D1945"/>
<path d="M14.1065 85.9218C42.8859 80.0506 48.0774 75.5904 62.0156 66.8065L61.8463 68.9911L61.3385 69.5373C32.7285 84.1468 34.4213 82.2352 14.7837 87.8333L14.1065 85.9218Z" fill="#7D1945"/>
<path d="M9.84798 76.2432C26.1563 73.3448 29.0981 71.1429 36.9965 66.8065L36.9005 67.885L36.6127 68.1546C20.4004 75.3669 21.3597 74.4232 10.2317 77.1868L9.84798 76.2432Z" fill="#7D1945"/>
<path d="M19.4298 98.8185C42.4532 92.5015 46.6065 87.7025 57.757 78.2515L57.6216 80.602L57.2153 81.1896C34.3273 96.9087 35.6816 94.852 19.9715 100.875L19.4298 98.8185Z" fill="#7D1945"/>
<path d="M45.3805 114.716C35.1333 110.723 24.753 105.267 19.4298 100.343V101.94L19.829 102.472C26.6161 108.993 40.1904 114.05 44.449 116.313L45.3805 114.716Z" fill="#7D1945"/>
<path d="M22.3576 109.632C34.3389 104.908 46.4759 98.4509 52.7 92.6242V94.514L52.2332 95.1439C44.2975 102.86 28.4261 108.845 23.4468 111.522L22.3576 109.632Z" fill="#7D1945"/>
<path d="M59.2209 77.9853C48.9737 73.9929 42.1866 71.5974 36.8634 66.6735L34.8672 66.9396H35.1333C41.9204 73.4606 54.0308 77.3199 58.2894 79.5823L59.2209 77.9853Z" fill="#7D1945"/>
<path d="M27.947 119.756C36.4583 115.723 42.0957 113.303 46.5172 108.328L48.1752 108.597H47.9542C42.3168 115.185 32.2579 119.084 28.7207 121.37L27.947 119.756Z" fill="#7D1945"/>
<path d="M27.947 119.756C36.4583 115.723 42.0957 113.303 46.5172 108.328L48.1752 108.597H47.9542C42.3168 115.185 32.2579 119.084 28.7207 121.37L27.947 119.756Z" fill="#7D1945"/>
</svg>
