<svg width="263" height="474" viewBox="0 0 263 474" fill="none" xmlns="http://www.w3.org/2000/svg">
<path d="M159.545 9.94845C132.745 -2.85155 98.7115 2.61512 85.0448 6.94845C21.8448 -18.6516 19.3781 32.6151 26.0448 61.4485L22.0448 70.4485L11.5448 110.948L6.04481 149.948C6.04481 157.948 11.7115 165.615 14.5448 168.448L6.04481 186.448C-6.75519 210.048 3.71148 224.948 10.5448 229.448C1.74481 249.848 18.2115 255.282 27.5448 255.448V259.948L86.5448 421.448C124.945 515.848 162.211 460.782 176.045 421.448L235.545 260.948V254.948C245.545 255.348 251.045 251.782 252.545 249.948C263.345 249.548 263.711 238.115 262.545 232.448C248.145 168.848 239.545 144.282 237.045 139.948C249.445 128.748 244.211 110.282 240.045 102.448C223.245 69.6485 210.711 50.1151 206.545 44.4485C215.345 -8.75153 178.878 -0.718208 159.545 9.94845Z" fill="#7D1945"/>
<path d="M195.5 10.5126C203.5 16.9126 203.5 33.1793 202.5 40.5126L183.5 23.5126L166 12.0126C173.5 6.51262 185.5 2.51262 195.5 10.5126Z" fill="#F7F7F5"/>
<path d="M187.5 20.6437C183.9 17.8438 177.667 17.8104 175 18.1438C181 21.3438 189.167 28.4771 192.5 31.6437C192 26.6437 192 24.1438 187.5 20.6437Z" fill="#FF7B6B"/>
<path d="M32.5 64.5C35.3 74.5 30.3333 70.3333 27.5 67C24.3333 74.6667 16.9 98.3 12.5 131.5C6.99996 173 19 161 29 157C37 153.8 46 153.333 49.5 153.5C54.8333 153.5 66.2 153.8 69 155C72.5 156.5 89 157.5 99.5 158C107.9 158.4 125 150.5 132.5 146.5C149.3 134.1 170.167 134.667 178.5 136.5C207.3 144.5 222.5 141.5 226.5 139C239.7 134.6 240.667 121.167 239.5 115C231.9 94.6 216.333 67.8333 209.5 57C199.5 40.2 182 26.6667 174.5 22C142.1 -0.799999 104.333 4.5 89.5 10L93 13.5C95.8 18.3 92.8333 18.1667 91 17.5C83 7.5 57 -3 38.5 11.5C20 26 29 52 32.5 64.5Z" fill="#F8F7F5"/>
<path d="M52.5 53.5L77.5 32.5C79.2857 31.0001 80 26 74.5 22.5C70.1 19.7 66.3333 18.6667 65 18.5C52.6 17.3 45.5 26 43.5 30.5C42.8333 32.3334 41.7 38.3 42.5 47.5C43.3 56.7 49.5 55.3334 52.5 53.5Z" fill="#FF786B"/>
<path d="M257 233.5C243 167.9 234.167 144.833 231.5 141.5C221.5 149.1 201 146.333 192 144C156 132.5 142.5 148.5 126.5 154.5C110.5 160.5 109 165.5 72.5 160C36 154.5 32.5 162 28.5 164C25.3 165.6 21.1667 166.667 19.5 167C17.1 171.4 10.1666 188.167 6.99996 196C-3.80004 237.6 37.8333 233.333 60 226C89.5 215 111.5 225.5 118.5 229C124.1 231.8 134.833 236.167 139.5 238C154.3 244.8 178.667 240.167 189 237C212.6 230.6 228.167 234.333 233 237C256.2 250.6 258.667 240.333 257 233.5Z" fill="#F5EEA7"/>
<path d="M243.5 247.5C237.1 241.9 221.167 238.667 215.5 238.5C205.5 238.5 197 240.5 194 241.5C183.2 244.7 168.167 246.167 162 246.5C151 247 138.5 243.5 125 237.5C114.2 232.7 106.167 229.833 103.5 229C87.5 223.4 68.5 228 61 231C35.4 239.8 19.3333 234.667 14.5 231C8.09995 243.4 17.1666 248.5 22.5 249.5H240C243.6 249.5 244.833 248.667 243.5 247.5Z" fill="#E9B52D"/>
<path d="M231 254H31V258.5L88 412.5C124.4 512.1 159.833 454 173 412.5L230.5 259L231 254Z" fill="#EAB734"/>
<circle cx="200" cy="67" r="10" fill="#FE7C6E"/>
<circle cx="108" cy="96" r="10" fill="#FE7C6E"/>
<circle cx="115" cy="80" r="9" fill="#992D5E"/>
<circle cx="184" cy="61" r="9" fill="#992D5E"/>
<path d="M156.5 86C154.5 86.4 151.333 82.8333 150 81C149.084 79.8327 148.5 80 147 82.5C145.8 84.5 149.167 87 151 88C158.2 92.8 162.333 88.3333 163.5 85.5C171.5 87.1 173.833 83.8333 174 82V77C174 73.5 170 72.5 170 76.5C170 80.5 170 81.5 167.5 82C165 82.5 163.5 80.5 163 78.5C162.5 76.5 158 76.5 159 80C160 83.5 159 85.5 156.5 86Z" fill="#912348"/>
<ellipse cx="76.5781" cy="183.985" rx="22.6981" ry="6.93658" transform="rotate(8 76.5781 183.985)" fill="#F3971A"/>
<circle cx="30.5" cy="179.5" r="11.5" fill="#FF796D"/>
<circle cx="132.5" cy="199.5" r="11.5" fill="#FD766A"/>
<ellipse cx="41.5189" cy="170.5" rx="3.62391" ry="6.00705" transform="rotate(5 41.5189 170.5)" fill="#9E2664"/>
<ellipse cx="124.74" cy="186.768" rx="4.06235" ry="6.5031" transform="rotate(5 124.74 186.768)" fill="#A6296D"/>
<path d="M207.5 325.5C119 316.5 75.1667 282.667 34 250.5L28.5 256.5L30 258.5C130 328.5 188.5 330.5 207.5 333.5V325.5Z" fill="#7D1945"/>
<path d="M190 380.273C108.905 362.682 94.2756 349.318 55 323L55.477 329.545L56.9081 331.182C137.527 374.955 132.756 369.227 188.092 386L190 380.273Z" fill="#7D1945"/>
<path d="M53 322.818C161.127 300.76 180.633 284.002 233 251L232.364 259.208L230.456 261.26C122.965 316.149 129.325 308.968 55.5442 330L53 322.818Z" fill="#7D1945"/>
<path d="M37 286.455C98.2721 275.565 109.325 267.292 139 251L138.64 255.052L137.558 256.065C76.6466 283.162 80.2509 279.617 38.4417 290L37 286.455Z" fill="#7D1945"/>
<path d="M73 371.273C159.502 347.539 175.106 329.509 217 294L216.491 302.831L214.965 305.039C128.972 364.097 134.06 356.37 75.0353 379L73 371.273Z" fill="#7D1945"/>
<path d="M170.5 431C132 416 93 395.5 73 377V383L74.5 385C100 409.5 151 428.5 167 437L170.5 431Z" fill="#7D1945"/>
<path d="M84 411.9C129.015 394.15 174.615 369.892 198 348V355.1L196.246 357.467C166.431 386.458 106.8 408.942 88.0923 419L84 411.9Z" fill="#7D1945"/>
<path d="M222.5 293C184 278 158.5 269 138.5 250.5L131 251.5H132C157.5 276 203 290.5 219 299L222.5 293Z" fill="#7D1945"/>
<path d="M105 449.938C136.978 434.784 158.158 425.691 174.77 407L181 408.01H180.169C158.989 432.763 121.197 447.412 107.907 456L105 449.938Z" fill="#7D1945"/>
<path d="M105 449.938C136.978 434.784 158.158 425.691 174.77 407L181 408.01H180.169C158.989 432.763 121.197 447.412 107.907 456L105 449.938Z" fill="#7D1945"/>
</svg>
